<svg width="626" height="145" viewBox="0 0 626 145" fill="none" xmlns="http://www.w3.org/2000/svg">
<path d="M133 52H132V53V110C132 117.732 138.268 124 146 124H179.3H180.3V123V111.5V110.5H179.3H146.5V53V52H145.5H133ZM189.781 52H188.781V53V110.027C188.781 117.748 195.031 124.011 202.752 124.027L237.379 124.1L238.381 124.102V123.1V111.6V110.6H237.381H203.281V92.9H231.181H232.181V91.9V80.4V79.4H231.181H203.281V65.5H237.381H238.381V64.5V53V52H237.381H189.781ZM248.418 52H247.418V53V110.027C247.418 117.748 253.668 124.011 261.389 124.027L296.016 124.1L297.018 124.102V123.1V111.6V110.6H296.018H261.918V92.9H289.818H290.818V91.9V80.4V79.4H289.818H261.918V65.5H296.018H297.018V64.5V53V52H296.018H248.418ZM307.055 52H306.055V53V110C306.055 117.732 312.323 124 320.055 124H353.355H354.355V123V111.5V110.5H353.355H320.555V53V52H319.555H307.055Z" fill="#005CA8" stroke="#005CA8" stroke-width="2"/>
<circle cx="167" cy="82" r="13" fill="#FFAA3E"/>
<path d="M364.322 123C362.894 123 362.18 122.286 362.18 120.858V54.762C362.18 53.334 362.894 52.62 364.322 52.62C365.75 52.62 366.464 53.334 366.464 54.762V84.036C369.558 78.664 375.576 75.978 384.518 75.978H387.374C393.596 75.978 398.118 77.406 400.94 80.262C403.796 83.084 405.224 87.606 405.224 93.828V120.858C405.224 122.286 404.51 123 403.082 123C401.654 123 400.94 122.286 400.94 120.858V93.828C400.94 88.83 399.92 85.328 397.88 83.322C395.874 81.282 392.372 80.262 387.374 80.262H384.518C378.874 80.262 374.539 81.231 371.513 83.169C368.487 85.073 366.804 88.048 366.464 92.094V120.858C366.464 122.286 365.75 123 364.322 123ZM433.353 123C427.131 123 422.592 121.589 419.736 118.767C416.914 115.911 415.503 111.406 415.503 105.252V93.828C415.503 87.538 416.914 82.982 419.736 80.16C422.592 77.304 427.131 75.91 433.353 75.978H441.717C447.939 75.978 452.461 77.406 455.283 80.262C458.139 83.084 459.567 87.606 459.567 93.828V105.15C459.567 111.372 458.139 115.911 455.283 118.767C452.461 121.589 447.939 123 441.717 123H433.353ZM419.787 105.252C419.787 110.182 420.79 113.667 422.796 115.707C424.836 117.713 428.355 118.716 433.353 118.716H441.717C446.715 118.716 450.217 117.713 452.223 115.707C454.263 113.667 455.283 110.148 455.283 105.15V93.828C455.283 88.83 454.263 85.328 452.223 83.322C450.217 81.282 446.715 80.262 441.717 80.262H433.353C430.021 80.228 427.352 80.653 425.346 81.537C423.374 82.387 421.946 83.815 421.062 85.821C420.212 87.793 419.787 90.462 419.787 93.828V105.252ZM510.75 75.978C512.178 75.978 512.892 76.692 512.892 78.12V120.858C512.892 122.286 512.178 123 510.75 123C509.322 123 508.608 122.286 508.608 120.858V114.942C505.514 120.314 499.496 123 490.554 123H487.698C481.476 123 476.937 121.589 474.081 118.767C471.259 115.911 469.848 111.372 469.848 105.15V78.12C469.848 76.692 470.562 75.978 471.99 75.978C473.418 75.978 474.132 76.692 474.132 78.12V105.15C474.132 110.148 475.135 113.667 477.141 115.707C479.181 117.713 482.7 118.716 487.698 118.716H490.554C496.198 118.716 500.533 117.747 503.559 115.809C506.585 113.871 508.268 110.896 508.608 106.884V78.12C508.608 76.692 509.322 75.978 510.75 75.978ZM535.105 122.898C530.991 122.898 527.88 122.014 525.772 120.246C523.664 118.444 522.423 115.69 522.049 111.984C522.015 111.27 522.185 110.726 522.559 110.352C522.933 109.944 523.477 109.74 524.191 109.74C524.871 109.74 525.381 109.927 525.721 110.301C526.095 110.641 526.299 111.168 526.333 111.882C526.605 114.364 527.404 116.115 528.73 117.135C530.09 118.121 532.215 118.614 535.105 118.614H551.833C555.199 118.614 557.511 117.968 558.769 116.676C560.061 115.35 560.707 113.038 560.707 109.74C560.707 106.408 560.061 104.096 558.769 102.804C557.511 101.512 555.199 100.866 551.833 100.866H535.309C531.025 100.866 527.863 99.863 525.823 97.857C523.783 95.851 522.763 92.706 522.763 88.422C522.763 84.07 523.783 80.891 525.823 78.885C527.863 76.879 531.025 75.876 535.309 75.876H551.323C558.939 75.876 563.053 79.276 563.665 86.076C563.767 86.79 563.631 87.351 563.257 87.759C562.883 88.133 562.339 88.32 561.625 88.32C560.911 88.32 560.384 88.15 560.044 87.81C559.704 87.436 559.483 86.892 559.381 86.178C559.177 83.934 558.463 82.37 557.239 81.486C556.015 80.602 554.043 80.16 551.323 80.16H535.309C532.215 80.16 530.056 80.755 528.832 81.945C527.642 83.135 527.047 85.294 527.047 88.422C527.047 91.482 527.642 93.607 528.832 94.797C530.056 95.987 532.215 96.582 535.309 96.582H551.833C556.389 96.582 559.721 97.636 561.829 99.744C563.937 101.852 564.991 105.184 564.991 109.74C564.991 114.262 563.937 117.594 561.829 119.736C559.721 121.844 556.389 122.898 551.833 122.898H535.105ZM577.437 101.07V105.252C577.437 110.182 578.44 113.667 580.446 115.707C582.486 117.713 586.005 118.716 591.003 118.716H599.367C603.957 118.716 607.272 118.087 609.312 116.829C611.352 115.571 612.525 113.412 612.831 110.352C612.899 109.638 613.103 109.111 613.443 108.771C613.817 108.397 614.361 108.21 615.075 108.21C615.755 108.21 616.282 108.414 616.656 108.822C617.03 109.196 617.183 109.74 617.115 110.454C616.775 114.772 615.16 117.951 612.27 119.991C609.38 121.997 605.079 123 599.367 123H591.003C584.781 123 580.242 121.589 577.386 118.767C574.564 115.911 573.153 111.406 573.153 105.252V93.828C573.153 87.538 574.564 82.982 577.386 80.16C580.242 77.304 584.781 75.91 591.003 75.978H599.367C605.589 75.978 610.111 77.406 612.933 80.262C615.789 83.084 617.217 87.606 617.217 93.828V98.928C617.217 100.356 616.503 101.07 615.075 101.07H577.437ZM591.003 80.262C586.005 80.194 582.486 81.18 580.446 83.22C578.44 85.226 577.437 88.762 577.437 93.828V96.786H612.933V93.828C612.933 88.83 611.913 85.328 609.873 83.322C607.867 81.282 604.365 80.262 599.367 80.262H591.003Z" fill="#5E5E5E"/>
<path d="M15.8593 122.777C15.6065 122.777 15.3561 122.727 15.1225 122.631C14.8889 122.534 14.6767 122.392 14.4979 122.214C14.3192 122.035 14.1774 121.823 14.0808 121.589C13.9841 121.355 13.9344 121.105 13.9346 120.852V59.5732C13.9344 59.3203 13.9841 59.07 14.0808 58.8364C14.1774 58.6028 14.3192 58.3906 14.4979 58.2118C14.6767 58.0331 14.8889 57.8913 15.1225 57.7946C15.3561 57.698 15.6065 57.6483 15.8593 57.6484C16.3696 57.649 16.8588 57.8519 17.2197 58.2128C17.5805 58.5736 17.7835 59.0628 17.784 59.5732V120.853C17.7889 121.914 16.9254 122.777 15.8593 122.777ZM104.149 122.777C103.896 122.777 103.646 122.727 103.412 122.631C103.178 122.534 102.966 122.392 102.787 122.214C102.609 122.035 102.467 121.823 102.37 121.589C102.274 121.355 102.224 121.105 102.224 120.852V59.5732C102.224 58.507 103.087 57.6484 104.149 57.6484C105.21 57.6484 106.073 58.5115 106.073 59.5732V120.853C106.073 121.363 105.87 121.852 105.509 122.213C105.148 122.573 104.659 122.776 104.149 122.777Z" fill="#FFAA3E"/>
<path d="M110.333 67.3984C109.838 67.3995 109.361 67.2085 109.003 66.8654L60.0067 20.1051L11.006 66.8654C10.6379 67.2192 10.1381 67.4033 9.63343 67.3984C9.12324 67.3847 8.63882 67.1713 8.28434 66.8041L0.534015 58.6813C0.359193 58.4986 0.222089 58.2833 0.130543 58.0476C0.0389958 57.8119 -0.0051985 57.5605 0.000486416 57.3077C0.00617133 57.055 0.061624 56.8058 0.163674 56.5745C0.265724 56.3432 0.41237 56.1342 0.595226 55.9596L13.9304 43.2329V13.6853C13.9302 13.4325 13.9799 13.1821 14.0766 12.9485C14.1732 12.7149 14.315 12.5027 14.4938 12.3239C14.6725 12.1452 14.8848 12.0034 15.1184 11.9067C15.3519 11.8101 15.6023 11.7604 15.8551 11.7605H31.7234C31.9762 11.7604 32.2266 11.8101 32.4602 11.9067C32.6938 12.0034 32.906 12.1452 33.0848 12.3239C33.2635 12.5027 33.4053 12.7149 33.502 12.9485C33.5986 13.1821 33.6483 13.4325 33.6481 13.6853V24.4118L58.6674 0.534137C59.0254 0.191347 59.5019 0 59.9976 0C60.4933 0 60.9698 0.191347 61.3278 0.534137L119.404 55.9596C119.587 56.1342 119.734 56.3431 119.836 56.5744C119.938 56.8057 119.994 57.0549 120 57.3077C120.005 57.5605 119.961 57.812 119.869 58.0477C119.778 58.2834 119.641 58.4987 119.466 58.6813L111.715 66.8041C111.541 66.987 111.331 67.1335 111.1 67.2355C110.868 67.3375 110.619 67.3928 110.366 67.3984H110.333ZM60.0067 15.5204C60.483 15.5204 60.9642 15.6996 61.3368 16.0534L110.272 62.7524L115.362 57.4173L60.0067 4.59071L33.0628 30.3035C32.5062 30.8366 31.6809 30.9829 30.9731 30.6809C30.2653 30.3789 29.8032 29.6809 29.8032 28.9119V15.61H17.7891V44.0586C17.7889 44.3187 17.7362 44.576 17.634 44.8151C17.5319 45.0543 17.3825 45.2703 17.1949 45.4503L4.65707 57.4173L9.74693 62.7524L58.682 16.0534C59.0444 15.6947 59.5255 15.5204 60.0067 15.5204Z" fill="#FFAA3E"/>
<path d="M35.9262 83.8322C35.6683 83.8329 35.413 83.7814 35.1755 83.6809C34.938 83.5803 34.7233 83.4329 34.5443 83.2473C31.45 80.0728 29.7471 75.8792 29.7471 71.4404C29.7471 62.1099 37.3369 54.5156 46.6718 54.5156C53.0256 54.5156 58.79 58.0249 61.7099 63.6714C61.8263 63.8959 61.8972 64.1411 61.9186 64.3931C61.9401 64.645 61.9117 64.8987 61.8351 65.1397C61.7584 65.3806 61.635 65.6041 61.4719 65.7973C61.3088 65.9906 61.1093 66.1497 60.8846 66.2658C60.6601 66.3821 60.4149 66.453 60.1629 66.4745C59.911 66.4959 59.6573 66.4675 59.4163 66.3909C59.1754 66.3142 58.9519 66.1908 58.7587 66.0278C58.5654 65.8647 58.4063 65.6651 58.2902 65.4404C56.0307 61.077 51.5825 58.3646 46.6722 58.3646C39.4647 58.3646 33.6014 64.228 33.6014 71.4355C33.5943 74.8425 34.9239 78.1163 37.3044 80.5536C37.4809 80.7346 37.6199 80.9487 37.7135 81.1836C37.8071 81.4184 37.8534 81.6694 37.8499 81.9222C37.8464 82.175 37.7931 82.4246 37.6931 82.6568C37.593 82.889 37.4481 83.0991 37.2667 83.2752C37.0916 83.4526 36.8828 83.5932 36.6526 83.6888C36.4224 83.7845 36.1754 83.8332 35.9262 83.8322Z" fill="#FFAA3E"/>
<path d="M84.0684 83.8327C83.5657 83.8343 83.0827 83.6376 82.7241 83.2854C82.5428 83.1093 82.3979 82.8991 82.2978 82.667C82.1978 82.4348 82.1445 82.1852 82.141 81.9324C82.1375 81.6796 82.1838 81.4286 82.2774 81.1937C82.371 80.9589 82.51 80.7448 82.6864 80.5637C85.0733 78.1108 86.3895 74.8751 86.3895 71.4457C86.3895 64.2381 80.5262 58.3748 73.3187 58.3748C68.4129 58.3748 63.9598 61.0823 61.7007 65.4457C61.2102 66.389 60.0496 66.762 59.1063 66.2711C58.163 65.7806 57.79 64.62 58.281 63.6767C61.2009 58.0302 66.9653 54.5254 73.3191 54.5254C82.6496 54.5254 90.2438 62.1152 90.2438 71.4501C90.2438 75.8841 88.5409 80.0777 85.4466 83.2522C85.268 83.4369 85.0537 83.5836 84.8169 83.6834C84.58 83.7831 84.3254 83.8339 84.0684 83.8327Z" fill="#FFAA3E"/>
<path d="M59.9974 105.013C59.5284 105.013 59.0755 104.842 58.7238 104.532L34.6527 83.3474C34.2694 83.0101 34.0358 82.5345 34.003 82.025C33.9702 81.5155 34.1411 81.0138 34.478 80.6302C34.8153 80.247 35.2909 80.0133 35.8004 79.9805C36.3099 79.9478 36.8116 80.1186 37.1952 80.4555L59.9974 100.522L82.7952 80.4604C82.9849 80.293 83.2057 80.1646 83.4451 80.0828C83.6845 80.0009 83.9377 79.9671 84.1901 79.9834C84.4426 79.9996 84.6893 80.0655 84.9163 80.1774C85.1432 80.2892 85.3458 80.4448 85.5124 80.6351C85.6799 80.8248 85.8082 81.0456 85.89 81.285C85.9719 81.5244 86.0057 81.7775 85.9894 82.03C85.9732 82.2825 85.9073 82.5292 85.7954 82.7561C85.6836 82.9831 85.5281 83.1857 85.3377 83.3523L61.2667 104.537C60.9153 104.844 60.4643 105.013 59.9974 105.013Z" fill="#FFAA3E"/>
<path d="M19.3222 122.994C17.072 122.994 15.7371 122.781 15.5295 122.748C15.0261 122.662 14.5774 122.38 14.282 121.964C13.9866 121.547 13.8686 121.03 13.9538 120.527C14.133 119.48 15.1237 118.772 16.1708 118.951C16.3642 118.984 35.7232 121.88 58.7237 101.639C59.521 100.937 60.7379 101.017 61.4409 101.814C62.1438 102.612 62.0684 103.828 61.2661 104.531C42.6761 120.895 26.4353 122.994 19.3222 122.994Z" fill="#FFAA3E"/>
<path d="M100.678 122.994C93.5693 122.994 77.3235 120.895 58.7291 104.531C57.9317 103.828 57.8518 102.611 58.5543 101.814C59.2569 101.017 60.4742 100.937 61.2716 101.639C84.3851 121.979 103.626 118.984 103.82 118.951C104.069 118.908 104.324 118.915 104.571 118.971C104.818 119.028 105.051 119.132 105.257 119.278C105.463 119.424 105.639 119.61 105.773 119.824C105.908 120.038 105.999 120.277 106.041 120.526C106.127 121.03 106.009 121.547 105.713 121.963C105.418 122.38 104.969 122.662 104.466 122.748C104.263 122.786 102.928 122.994 100.678 122.994Z" fill="#FFAA3E"/>
</svg>
