<svg xmlns="http://www.w3.org/2000/svg" xmlns:xlink="http://www.w3.org/1999/xlink" width="1080" zoomAndPan="magnify" viewBox="0 0 810 809.999993" height="1080" preserveAspectRatio="xMidYMid meet" version="1.0"><defs><g/><clipPath id="5c07199b3c"><path d="M 123.234375 123.234375 L 686.765625 123.234375 L 686.765625 686.765625 L 123.234375 686.765625 Z M 123.234375 123.234375 " clip-rule="nonzero"/></clipPath><clipPath id="13a7cad5d0"><path d="M 405 123.234375 C 249.386719 123.234375 123.234375 249.386719 123.234375 405 C 123.234375 560.613281 249.386719 686.765625 405 686.765625 C 560.613281 686.765625 686.765625 560.613281 686.765625 405 C 686.765625 249.386719 560.613281 123.234375 405 123.234375 Z M 405 123.234375 " clip-rule="nonzero"/></clipPath><clipPath id="209371f567"><path d="M 123.234375 123.234375 L 686.484375 123.234375 L 686.484375 686.484375 L 123.234375 686.484375 Z M 123.234375 123.234375 " clip-rule="nonzero"/></clipPath><clipPath id="09cc25ffbe"><path d="M 404.996094 123.234375 C 249.382812 123.234375 123.234375 249.382812 123.234375 404.996094 C 123.234375 560.605469 249.382812 686.753906 404.996094 686.753906 C 560.605469 686.753906 686.753906 560.605469 686.753906 404.996094 C 686.753906 249.382812 560.605469 123.234375 404.996094 123.234375 Z M 404.996094 123.234375 " clip-rule="nonzero"/></clipPath><clipPath id="6b03dd8224"><path d="M 144.5 394.472656 L 165.554688 394.472656 L 165.554688 415.527344 L 144.5 415.527344 Z M 144.5 394.472656 " clip-rule="nonzero"/></clipPath><clipPath id="8bc9260918"><path d="M 155.027344 394.472656 L 156.046875 395.335938 L 157.226562 394.703125 L 158.046875 395.757812 L 159.332031 395.382812 L 159.914062 396.585938 L 161.25 396.484375 L 161.566406 397.777344 L 162.894531 397.957031 L 162.933594 399.289062 L 164.195312 399.734375 L 163.953125 401.046875 L 165.09375 401.746094 L 164.585938 402.980469 L 165.554688 403.898438 L 164.796875 405 L 165.554688 406.101562 L 164.585938 407.019531 L 165.09375 408.253906 L 163.953125 408.953125 L 164.195312 410.265625 L 162.933594 410.710938 L 162.894531 412.042969 L 161.566406 412.222656 L 161.25 413.515625 L 159.914062 413.414062 L 159.332031 414.617188 L 158.046875 414.242188 L 157.226562 415.296875 L 156.046875 414.664062 L 155.027344 415.527344 L 154.007812 414.664062 L 152.828125 415.296875 L 152.007812 414.242188 L 150.722656 414.617188 L 150.140625 413.414062 L 148.804688 413.515625 L 148.488281 412.222656 L 147.160156 412.042969 L 147.121094 410.710938 L 145.859375 410.265625 L 146.101562 408.953125 L 144.960938 408.253906 L 145.46875 407.019531 L 144.5 406.101562 L 145.257812 405 L 144.5 403.898438 L 145.46875 402.980469 L 144.960938 401.746094 L 146.101562 401.046875 L 145.859375 399.734375 L 147.121094 399.289062 L 147.160156 397.957031 L 148.488281 397.777344 L 148.804688 396.484375 L 150.140625 396.585938 L 150.722656 395.382812 L 152.007812 395.757812 L 152.828125 394.703125 L 154.007812 395.335938 Z M 155.027344 394.472656 " clip-rule="nonzero"/></clipPath><clipPath id="5908231ae2"><path d="M 647.332031 394.472656 L 668.386719 394.472656 L 668.386719 415.527344 L 647.332031 415.527344 Z M 647.332031 394.472656 " clip-rule="nonzero"/></clipPath><clipPath id="5a5515f638"><path d="M 657.859375 394.472656 L 658.878906 395.335938 L 660.058594 394.703125 L 660.878906 395.757812 L 662.164062 395.382812 L 662.746094 396.585938 L 664.082031 396.484375 L 664.398438 397.777344 L 665.726562 397.957031 L 665.765625 399.289062 L 667.027344 399.734375 L 666.785156 401.046875 L 667.925781 401.746094 L 667.417969 402.980469 L 668.386719 403.898438 L 667.628906 405 L 668.386719 406.101562 L 667.417969 407.019531 L 667.925781 408.253906 L 666.785156 408.953125 L 667.027344 410.265625 L 665.765625 410.710938 L 665.726562 412.042969 L 664.398438 412.222656 L 664.082031 413.515625 L 662.746094 413.414062 L 662.164062 414.617188 L 660.878906 414.242188 L 660.058594 415.296875 L 658.878906 414.664062 L 657.859375 415.527344 L 656.839844 414.664062 L 655.660156 415.296875 L 654.839844 414.242188 L 653.554688 414.617188 L 652.972656 413.414062 L 651.636719 413.515625 L 651.320312 412.222656 L 649.992188 412.042969 L 649.953125 410.710938 L 648.691406 410.265625 L 648.933594 408.953125 L 647.792969 408.253906 L 648.300781 407.019531 L 647.332031 406.101562 L 648.089844 405 L 647.332031 403.898438 L 648.300781 402.980469 L 647.792969 401.746094 L 648.933594 401.046875 L 648.691406 399.734375 L 649.953125 399.289062 L 649.992188 397.957031 L 651.320312 397.777344 L 651.636719 396.484375 L 652.972656 396.585938 L 653.554688 395.382812 L 654.839844 395.757812 L 655.660156 394.703125 L 656.839844 395.335938 Z M 657.859375 394.472656 " clip-rule="nonzero"/></clipPath><clipPath id="22154a9111"><path d="M 361 375 L 580.625 375 L 580.625 447 L 361 447 Z M 361 375 " clip-rule="nonzero"/></clipPath><clipPath id="40af823380"><path d="M 350 363 L 580.625 363 L 580.625 458 L 350 458 Z M 350 363 " clip-rule="nonzero"/></clipPath><clipPath id="18598884ff"><path d="M 231.929688 323.929688 L 351 323.929688 L 351 391 L 231.929688 391 Z M 231.929688 323.929688 " clip-rule="nonzero"/></clipPath><clipPath id="f06bdfc787"><path d="M 339.191406 461 L 340 461 L 340 497 L 339.191406 497 Z M 339.191406 461 " clip-rule="nonzero"/></clipPath><clipPath id="c91d601579"><path d="M 339.191406 455 L 346 455 L 346 503 L 339.191406 503 Z M 339.191406 455 " clip-rule="nonzero"/></clipPath></defs><rect x="-81" width="972" fill="#ffffff" y="-80.999999" height="971.999992" fill-opacity="1"/><rect x="-81" width="972" fill="#ffffff" y="-80.999999" height="971.999992" fill-opacity="1"/><g clip-path="url(#5c07199b3c)"><g clip-path="url(#13a7cad5d0)"><path fill="#005ca8" d="M 123.234375 123.234375 L 686.765625 123.234375 L 686.765625 686.765625 L 123.234375 686.765625 Z M 123.234375 123.234375 " fill-opacity="1" fill-rule="nonzero"/></g></g><g clip-path="url(#209371f567)"><g clip-path="url(#09cc25ffbe)"><path stroke-linecap="butt" transform="matrix(0.75, 0, 0, 0.75, 123.234768, 123.234784)" fill="none" stroke-linejoin="miter" d="M 375.681787 -0.0005456 C 168.197402 -0.0005456 -0.0005236 168.19738 -0.0005236 375.681765 C -0.0005236 583.160942 168.197402 751.358867 375.681787 751.358867 C 583.160964 751.358867 751.358889 583.160942 751.358889 375.681765 C 751.358889 168.19738 583.160964 -0.0005456 375.681787 -0.0005456 Z M 375.681787 -0.0005456 " stroke="#ffaa3e" stroke-width="8" stroke-opacity="1" stroke-miterlimit="4"/></g></g><g clip-path="url(#6b03dd8224)"><g clip-path="url(#8bc9260918)"><path fill="#ffaa3e" d="M 144.5 394.472656 L 165.554688 394.472656 L 165.554688 415.527344 L 144.5 415.527344 Z M 144.5 394.472656 " fill-opacity="1" fill-rule="nonzero"/></g></g><g fill="#ffffff" fill-opacity="1"><g transform="translate(166.678527, 367.607553)"><g><path d="M 0.3125 -1.78125 L -19.6875 -5.3125 L -18.453125 -12.3125 C -18.023438 -14.75 -17.234375 -16.507812 -16.078125 -17.59375 C -14.921875 -18.675781 -13.445312 -19.0625 -11.65625 -18.75 C -10.675781 -18.570312 -9.851562 -18.164062 -9.1875 -17.53125 C -8.53125 -16.90625 -8.113281 -16.113281 -7.9375 -15.15625 C -7.5 -16.132812 -6.835938 -16.847656 -5.953125 -17.296875 C -5.078125 -17.753906 -4.070312 -17.882812 -2.9375 -17.6875 C -1.019531 -17.351562 0.320312 -16.484375 1.09375 -15.078125 C 1.863281 -13.671875 2.0625 -11.832031 1.6875 -9.5625 Z M -7.65625 -7.4375 L -2.265625 -6.484375 L -1.65625 -10.015625 C -1.476562 -10.984375 -1.570312 -11.78125 -1.9375 -12.40625 C -2.300781 -13.039062 -2.894531 -13.429688 -3.71875 -13.578125 C -5.539062 -13.898438 -6.632812 -13.109375 -7 -11.203125 Z M -10.578125 -7.953125 L -10.046875 -11 C -9.710938 -13.09375 -10.359375 -14.28125 -11.984375 -14.5625 C -12.890625 -14.71875 -13.585938 -14.566406 -14.078125 -14.109375 C -14.578125 -13.660156 -14.925781 -12.863281 -15.125 -11.71875 L -15.625 -8.84375 Z M -10.578125 -7.953125 "/></g></g></g><g fill="#ffffff" fill-opacity="1"><g transform="translate(170.291459, 347.581824)"><g><path d="M -15.203125 -21.84375 L -2.28125 -18.390625 C -0.125 -17.816406 1.394531 -16.691406 2.28125 -15.015625 C 3.164062 -13.335938 3.300781 -11.335938 2.6875 -9.015625 C 2.070312 -6.710938 0.984375 -5.046875 -0.578125 -4.015625 C -2.148438 -2.992188 -4 -2.757812 -6.125 -3.3125 L -19.203125 -6.796875 L -18.125 -10.828125 L -5.171875 -7.375 C -3.878906 -7.03125 -2.859375 -7.085938 -2.109375 -7.546875 C -1.359375 -8.015625 -0.835938 -8.796875 -0.546875 -9.890625 C 0.0546875 -12.148438 -0.832031 -13.617188 -3.21875 -14.296875 L -16.28125 -17.78125 Z M -15.203125 -21.84375 "/></g></g></g><g fill="#ffffff" fill-opacity="1"><g transform="translate(175.792044, 327.387426)"><g><path d="M -7.515625 -12.078125 L -14.6875 -19.15625 L -13.15625 -23.453125 L -3.21875 -12.796875 L 3.703125 -10.3125 L 2.265625 -6.296875 L -4.65625 -8.78125 L -19.09375 -6.90625 L -17.546875 -11.21875 Z M -7.515625 -12.078125 "/></g></g></g><g fill="#ffffff" fill-opacity="1"><g transform="translate(182.753997, 308.679837)"><g><path d="M 2.484375 -5.75 L 0.828125 -1.90625 L -17.8125 -9.984375 L -16.15625 -13.828125 Z M 2.484375 -5.75 "/></g></g></g><g fill="#ffffff" fill-opacity="1"><g transform="translate(186.854606, 298.905822)"><g><path d="M 8.421875 -16.28125 L 6.5 -12.5625 L -9.09375 -11.46875 L 2.765625 -5.328125 L 0.828125 -1.609375 L -17.203125 -10.953125 L -15.265625 -14.671875 L 0.359375 -15.765625 L -11.53125 -21.921875 L -9.609375 -25.625 Z M 8.421875 -16.28125 "/></g></g></g><g fill="#ffffff" fill-opacity="1"><g transform="translate(197.177668, 279.198999)"><g><path d="M 7.46875 -16.4375 C 7.8125 -15.320312 7.820312 -14.050781 7.5 -12.625 C 7.1875 -11.195312 6.578125 -9.773438 5.671875 -8.359375 C 4.722656 -6.878906 3.570312 -5.785156 2.21875 -5.078125 C 0.863281 -4.378906 -0.617188 -4.117188 -2.234375 -4.296875 C -3.859375 -4.484375 -5.507812 -5.101562 -7.1875 -6.15625 L -8.34375 -6.890625 C -10.050781 -7.984375 -11.34375 -9.21875 -12.21875 -10.59375 C -13.101562 -11.96875 -13.53125 -13.40625 -13.5 -14.90625 C -13.46875 -16.40625 -12.988281 -17.882812 -12.0625 -19.34375 C -10.757812 -21.382812 -9.257812 -22.664062 -7.5625 -23.1875 C -5.863281 -23.71875 -4.019531 -23.492188 -2.03125 -22.515625 L -4.21875 -19.09375 C -5.3125 -19.570312 -6.253906 -19.6875 -7.046875 -19.4375 C -7.835938 -19.1875 -8.535156 -18.585938 -9.140625 -17.640625 C -9.910156 -16.441406 -10.046875 -15.242188 -9.546875 -14.046875 C -9.046875 -12.847656 -7.910156 -11.675781 -6.140625 -10.53125 L -5.046875 -9.828125 C -3.242188 -8.679688 -1.664062 -8.15625 -0.3125 -8.25 C 1.03125 -8.34375 2.125 -9.046875 2.96875 -10.359375 C 3.8125 -11.679688 4.128906 -12.8125 3.921875 -13.75 L 0.984375 -15.640625 L -1.0625 -12.421875 L -3.65625 -14.078125 L 0.640625 -20.8125 Z M 7.46875 -16.4375 "/></g></g></g><g fill="#ffffff" fill-opacity="1"><g transform="translate(209.125644, 261.025985)"><g><path d="M 5.640625 0.921875 L 3.5 1.96875 L 3.0625 1.03125 C 2.519531 -0.144531 1.800781 -1.078125 0.90625 -1.765625 L -1.609375 -3.609375 L 0.40625 -6.34375 L 2.640625 -4.6875 C 3.472656 -4.070312 4.160156 -3.242188 4.703125 -2.203125 C 5.253906 -1.171875 5.566406 -0.128906 5.640625 0.921875 Z M 5.640625 0.921875 "/></g></g></g><g fill="#ffffff" fill-opacity="1"><g transform="translate(214.777964, 253.405191)"><g/></g></g><g fill="#ffffff" fill-opacity="1"><g transform="translate(220.601903, 245.965008)"><g><path d="M 4.3125 -12.71875 C 3.71875 -13.25 3.078125 -13.453125 2.390625 -13.328125 C 1.710938 -13.203125 0.71875 -12.753906 -0.59375 -11.984375 C -1.914062 -11.222656 -3.035156 -10.679688 -3.953125 -10.359375 C -6.421875 -9.492188 -8.4375 -9.765625 -10 -11.171875 C -10.8125 -11.910156 -11.332031 -12.796875 -11.5625 -13.828125 C -11.789062 -14.859375 -11.691406 -15.960938 -11.265625 -17.140625 C -10.847656 -18.328125 -10.160156 -19.453125 -9.203125 -20.515625 C -8.234375 -21.585938 -7.171875 -22.367188 -6.015625 -22.859375 C -4.859375 -23.359375 -3.710938 -23.519531 -2.578125 -23.34375 C -1.453125 -23.175781 -0.4375 -22.6875 0.46875 -21.875 L -2.34375 -18.765625 C -3.03125 -19.378906 -3.757812 -19.640625 -4.53125 -19.546875 C -5.3125 -19.460938 -6.050781 -19.03125 -6.75 -18.25 C -7.445312 -17.488281 -7.820312 -16.753906 -7.875 -16.046875 C -7.9375 -15.335938 -7.703125 -14.75 -7.171875 -14.28125 C -6.691406 -13.832031 -6.0625 -13.703125 -5.28125 -13.890625 C -4.507812 -14.085938 -3.546875 -14.535156 -2.390625 -15.234375 C -0.253906 -16.523438 1.566406 -17.21875 3.078125 -17.3125 C 4.597656 -17.40625 5.941406 -16.925781 7.109375 -15.875 C 8.421875 -14.695312 9 -13.273438 8.84375 -11.609375 C 8.6875 -9.953125 7.851562 -8.289062 6.34375 -6.625 C 5.300781 -5.457031 4.140625 -4.59375 2.859375 -4.03125 C 1.578125 -3.46875 0.34375 -3.269531 -0.84375 -3.4375 C -2.03125 -3.601562 -3.113281 -4.125 -4.09375 -5 L -1.296875 -8.109375 C 0.367188 -6.609375 2.097656 -6.851562 3.890625 -8.84375 C 4.566406 -9.582031 4.941406 -10.289062 5.015625 -10.96875 C 5.085938 -11.65625 4.851562 -12.238281 4.3125 -12.71875 Z M 4.3125 -12.71875 "/></g></g></g><g fill="#ffffff" fill-opacity="1"><g transform="translate(233.912659, 231.392785)"><g><path d="M 4.140625 -16.03125 L -1.6875 -10.515625 L 2.046875 -6.5625 L 8.890625 -13.03125 L 11.203125 -10.59375 L 1.3125 -1.25 L -12.640625 -16.015625 L -2.765625 -25.34375 L -0.4375 -22.875 L -7.265625 -16.421875 L -3.9375 -12.90625 L 1.890625 -18.421875 Z M 4.140625 -16.03125 "/></g></g></g><g fill="#ffffff" fill-opacity="1"><g transform="translate(247.258723, 218.898675)"><g><path d="M 2.53125 -6.390625 L 9.421875 -11.984375 L 11.546875 -9.375 L 1.40625 -1.140625 L -11.40625 -16.90625 L -8.15625 -19.546875 Z M 2.53125 -6.390625 "/></g></g></g><g fill="#ffffff" fill-opacity="1"><g transform="translate(261.03823, 207.803362)"><g><path d="M 3 -6.1875 L 10.28125 -11.25 L 12.203125 -8.5 L 1.484375 -1.03125 L -10.140625 -17.6875 L -6.703125 -20.09375 Z M 3 -6.1875 "/></g></g></g><g fill="#ffffff" fill-opacity="1"><g transform="translate(275.74727, 197.763059)"><g><path d="M 5.34375 -3.265625 L 1.765625 -1.078125 L -8.84375 -18.40625 L -5.265625 -20.59375 Z M 5.34375 -3.265625 "/></g></g></g><g fill="#ffffff" fill-opacity="1"><g transform="translate(284.721062, 192.120498)"><g><path d="M 16.25 -8.46875 L 12.53125 -6.546875 L -0.859375 -14.625 L 5.3125 -2.78125 L 1.609375 -0.84375 L -7.78125 -18.859375 L -4.078125 -20.796875 L 9.34375 -12.6875 L 3.15625 -24.5625 L 6.859375 -26.484375 Z M 16.25 -8.46875 "/></g></g></g><g fill="#ffffff" fill-opacity="1"><g transform="translate(304.494791, 181.92932)"><g><path d="M 15.5625 -9.171875 C 15.207031 -8.046875 14.488281 -6.988281 13.40625 -6 C 12.320312 -5.019531 11.003906 -4.210938 9.453125 -3.578125 C 7.828125 -2.910156 6.253906 -2.675781 4.734375 -2.875 C 3.222656 -3.082031 1.859375 -3.726562 0.640625 -4.8125 C -0.578125 -5.894531 -1.570312 -7.34375 -2.34375 -9.15625 L -2.859375 -10.421875 C -3.628906 -12.304688 -3.976562 -14.066406 -3.90625 -15.703125 C -3.84375 -17.335938 -3.363281 -18.757812 -2.46875 -19.96875 C -1.582031 -21.175781 -0.335938 -22.109375 1.265625 -22.765625 C 3.503906 -23.679688 5.460938 -23.863281 7.140625 -23.3125 C 8.828125 -22.769531 10.203125 -21.535156 11.265625 -19.609375 L 7.515625 -18.0625 C 6.898438 -19.0625 6.195312 -19.6875 5.40625 -19.9375 C 4.613281 -20.195312 3.695312 -20.113281 2.65625 -19.6875 C 1.351562 -19.144531 0.554688 -18.238281 0.265625 -16.96875 C -0.015625 -15.707031 0.234375 -14.097656 1.015625 -12.140625 L 1.515625 -10.9375 C 2.328125 -8.96875 3.3125 -7.628906 4.46875 -6.921875 C 5.632812 -6.222656 6.9375 -6.171875 8.375 -6.765625 C 9.832031 -7.359375 10.742188 -8.097656 11.109375 -8.984375 L 9.78125 -12.234375 L 6.265625 -10.78125 L 5.109375 -13.625 L 12.484375 -16.671875 Z M 15.5625 -9.171875 "/></g></g></g><g fill="#ffffff" fill-opacity="1"><g transform="translate(324.717877, 173.923544)"><g><path d="M 4.078125 4 L 1.71875 3.625 L 1.921875 2.609375 C 2.148438 1.328125 2.09375 0.148438 1.75 -0.921875 L 0.75 -3.875 L 3.984375 -4.96875 L 4.859375 -2.3125 C 5.179688 -1.332031 5.265625 -0.265625 5.109375 0.890625 C 4.960938 2.046875 4.617188 3.082031 4.078125 4 Z M 4.078125 4 "/></g></g></g><g fill="#ffffff" fill-opacity="1"><g transform="translate(333.722665, 170.938628)"><g/></g></g><g fill="#ffffff" fill-opacity="1"><g transform="translate(342.730608, 168.171447)"><g><path d="M 12.03125 -6.984375 L 4.875 -5.375 L 4.4375 -1 L 0.09375 -0.015625 L 3.015625 -21.484375 L 6.796875 -22.34375 L 18.671875 -4.1875 L 14.328125 -3.21875 Z M 5.25 -8.9375 L 10.1875 -10.046875 L 6.03125 -16.890625 Z M 5.25 -8.9375 "/></g></g></g><g fill="#ffffff" fill-opacity="1"><g transform="translate(363.531567, 163.577116)"><g><path d="M 18.171875 -2.375 L 14.015625 -1.828125 L 4.21875 -14.03125 L 5.953125 -0.78125 L 1.796875 -0.234375 L -0.84375 -20.375 L 3.3125 -20.921875 L 13.125 -8.703125 L 11.390625 -21.984375 L 15.53125 -22.515625 Z M 18.171875 -2.375 "/></g></g></g><g fill="#ffffff" fill-opacity="1"><g transform="translate(385.61869, 160.815426)"><g><path d="M 1.8125 -0.078125 L 0.984375 -20.375 L 7.234375 -20.625 C 9.003906 -20.695312 10.609375 -20.359375 12.046875 -19.609375 C 13.492188 -18.859375 14.640625 -17.753906 15.484375 -16.296875 C 16.335938 -14.847656 16.800781 -13.179688 16.875 -11.296875 L 16.921875 -10.359375 C 16.992188 -8.484375 16.671875 -6.796875 15.953125 -5.296875 C 15.242188 -3.796875 14.195312 -2.613281 12.8125 -1.75 C 11.4375 -0.882812 9.867188 -0.410156 8.109375 -0.328125 Z M 5.3125 -17.15625 L 5.859375 -3.609375 L 7.875 -3.6875 C 9.5 -3.75 10.722656 -4.332031 11.546875 -5.4375 C 12.367188 -6.539062 12.75 -8.082031 12.6875 -10.0625 L 12.640625 -11.140625 C 12.554688 -13.203125 12.066406 -14.75 11.171875 -15.78125 C 10.273438 -16.820312 9.007812 -17.304688 7.375 -17.234375 Z M 5.3125 -17.15625 "/></g></g></g><g fill="#ffffff" fill-opacity="1"><g transform="translate(406.48135, 160.216485)"><g/></g></g><g fill="#ffffff" fill-opacity="1"><g transform="translate(415.919817, 160.325633)"><g><path d="M 9.921875 -6.625 L 6.609375 -6.90625 L 5.984375 0.5 L 1.8125 0.15625 L 3.53125 -20.078125 L 11.046875 -19.4375 C 13.429688 -19.238281 15.226562 -18.550781 16.4375 -17.375 C 17.644531 -16.195312 18.164062 -14.640625 18 -12.703125 C 17.875 -11.316406 17.472656 -10.1875 16.796875 -9.3125 C 16.128906 -8.4375 15.164062 -7.78125 13.90625 -7.34375 L 17.578125 1.296875 L 17.5625 1.484375 L 13.09375 1.109375 Z M 6.90625 -10.296875 L 10.265625 -10 C 11.304688 -9.914062 12.132812 -10.109375 12.75 -10.578125 C 13.363281 -11.054688 13.710938 -11.765625 13.796875 -12.703125 C 13.878906 -13.648438 13.671875 -14.421875 13.171875 -15.015625 C 12.679688 -15.617188 11.878906 -15.96875 10.765625 -16.0625 L 7.421875 -16.359375 Z M 6.90625 -10.296875 "/></g></g></g><g fill="#ffffff" fill-opacity="1"><g transform="translate(436.229713, 162.180062)"><g><path d="M 15.296875 -6.359375 L 7.375 -7.6875 L 6.46875 -2.328125 L 15.765625 -0.78125 L 15.21875 2.53125 L 1.78125 0.296875 L 5.125 -19.734375 L 18.53125 -17.5 L 17.96875 -14.15625 L 8.703125 -15.703125 L 7.90625 -10.921875 L 15.828125 -9.59375 Z M 15.296875 -6.359375 "/></g></g></g><g fill="#ffffff" fill-opacity="1"><g transform="translate(454.187351, 165.17566)"><g><path d="M 17.765625 4.53125 L 13.703125 3.484375 L 9.109375 -11.46875 L 5.8125 1.484375 L 1.75 0.453125 L 6.765625 -19.234375 L 10.828125 -18.203125 L 15.421875 -3.203125 L 18.734375 -16.1875 L 22.78125 -15.15625 Z M 17.765625 4.53125 "/></g></g></g><g fill="#ffffff" fill-opacity="1"><g transform="translate(475.734464, 170.816503)"><g><path d="M 21.71875 -10.3125 L 15.859375 -12.375 L 10.265625 3.59375 L 6.3125 2.21875 L 11.90625 -13.75 L 6.125 -15.78125 L 7.25 -18.984375 L 22.84375 -13.515625 Z M 21.71875 -10.3125 "/></g></g></g><g fill="#ffffff" fill-opacity="1"><g transform="translate(494.510568, 177.62964)"><g><path d="M 5.765625 2.4375 L 1.90625 0.8125 L 9.828125 -17.890625 L 13.6875 -16.265625 Z M 5.765625 2.4375 "/></g></g></g><g fill="#ffffff" fill-opacity="1"><g transform="translate(504.319965, 181.647827)"><g><path d="M 16.34375 8.296875 L 12.609375 6.390625 L 11.390625 -9.1875 L 5.34375 2.71875 L 1.609375 0.8125 L 10.796875 -17.296875 L 14.53125 -15.390625 L 15.75 0.234375 L 21.8125 -11.703125 L 25.53125 -9.8125 Z M 16.34375 8.296875 "/></g></g></g><g fill="#ffffff" fill-opacity="1"><g transform="translate(524.107541, 191.812205)"><g><path d="M 16.5 7.328125 C 15.382812 7.691406 14.109375 7.71875 12.671875 7.40625 C 11.242188 7.101562 9.820312 6.503906 8.40625 5.609375 C 6.914062 4.671875 5.816406 3.523438 5.109375 2.171875 C 4.398438 0.828125 4.128906 -0.648438 4.296875 -2.265625 C 4.460938 -3.890625 5.054688 -5.539062 6.078125 -7.21875 L 6.8125 -8.390625 C 7.894531 -10.109375 9.117188 -11.414062 10.484375 -12.3125 C 11.847656 -13.207031 13.28125 -13.640625 14.78125 -13.609375 C 16.289062 -13.585938 17.78125 -13.117188 19.25 -12.203125 C 21.289062 -10.921875 22.582031 -9.4375 23.125 -7.75 C 23.664062 -6.0625 23.457031 -4.21875 22.5 -2.21875 L 19.0625 -4.375 C 19.519531 -5.46875 19.617188 -6.40625 19.359375 -7.1875 C 19.109375 -7.976562 18.507812 -8.675781 17.5625 -9.28125 C 16.351562 -10.03125 15.148438 -10.148438 13.953125 -9.640625 C 12.753906 -9.140625 11.597656 -8.003906 10.484375 -6.234375 L 9.796875 -5.125 C 8.660156 -3.320312 8.144531 -1.742188 8.25 -0.390625 C 8.351562 0.960938 9.066406 2.050781 10.390625 2.875 C 11.722656 3.71875 12.851562 4.03125 13.78125 3.8125 L 15.640625 0.84375 L 12.40625 -1.171875 L 14.046875 -3.765625 L 20.8125 0.46875 Z M 16.5 7.328125 "/></g></g></g><g fill="#ffffff" fill-opacity="1"><g transform="translate(542.378853, 203.607936)"><g/></g></g><g fill="#ffffff" fill-opacity="1"><g transform="translate(550.089282, 209.047132)"><g><path d="M 9.1875 -1.71875 L 4.640625 3.8125 L 1.40625 1.15625 L 14.3125 -14.53125 L 20.421875 -9.5 C 21.597656 -8.539062 22.453125 -7.472656 22.984375 -6.296875 C 23.523438 -5.128906 23.707031 -3.945312 23.53125 -2.75 C 23.363281 -1.5625 22.863281 -0.460938 22.03125 0.546875 C 20.769531 2.078125 19.25 2.851562 17.46875 2.875 C 15.6875 2.894531 13.867188 2.140625 12.015625 0.609375 Z M 11.34375 -4.328125 L 14.21875 -1.953125 C 15.070312 -1.253906 15.890625 -0.921875 16.671875 -0.953125 C 17.453125 -0.992188 18.148438 -1.382812 18.765625 -2.125 C 19.398438 -2.894531 19.679688 -3.703125 19.609375 -4.546875 C 19.546875 -5.398438 19.125 -6.15625 18.34375 -6.8125 L 15.390625 -9.25 Z M 11.34375 -4.328125 "/></g></g></g><g fill="#ffffff" fill-opacity="1"><g transform="translate(565.901253, 222.175677)"><g><path d="M 11.875 1.1875 L 9.5 -1.140625 L 4.296875 4.1875 L 1.296875 1.265625 L 15.484375 -13.265625 L 20.890625 -8 C 22.597656 -6.320312 23.539062 -4.644531 23.71875 -2.96875 C 23.90625 -1.289062 23.320312 0.242188 21.96875 1.640625 C 21 2.628906 19.972656 3.242188 18.890625 3.484375 C 17.816406 3.734375 16.65625 3.628906 15.40625 3.171875 L 12.734375 12.171875 L 12.609375 12.3125 L 9.40625 9.1875 Z M 11.859375 -3.5625 L 14.265625 -1.203125 C 15.023438 -0.460938 15.789062 -0.0820312 16.5625 -0.0625 C 17.34375 -0.0390625 18.0625 -0.363281 18.71875 -1.03125 C 19.394531 -1.71875 19.734375 -2.445312 19.734375 -3.21875 C 19.734375 -4 19.332031 -4.785156 18.53125 -5.578125 L 16.125 -7.921875 Z M 11.859375 -3.5625 "/></g></g></g><g fill="#ffffff" fill-opacity="1"><g transform="translate(580.411386, 236.422821)"><g><path d="M 19.390625 7.71875 C 17.878906 9.019531 16.320312 9.890625 14.71875 10.328125 C 13.113281 10.773438 11.570312 10.765625 10.09375 10.296875 C 8.613281 9.835938 7.320312 8.960938 6.21875 7.671875 C 5.113281 6.398438 4.4375 5 4.1875 3.46875 C 3.945312 1.945312 4.160156 0.421875 4.828125 -1.109375 C 5.503906 -2.648438 6.578125 -4.054688 8.046875 -5.328125 L 8.8125 -5.984375 C 10.320312 -7.285156 11.890625 -8.15625 13.515625 -8.59375 C 15.140625 -9.039062 16.6875 -9.03125 18.15625 -8.5625 C 19.632812 -8.09375 20.925781 -7.210938 22.03125 -5.921875 C 23.132812 -4.640625 23.804688 -3.234375 24.046875 -1.703125 C 24.285156 -0.179688 24.0625 1.34375 23.375 2.875 C 22.6875 4.414062 21.585938 5.832031 20.078125 7.125 Z M 17.328125 3.90625 C 18.953125 2.507812 19.929688 1.164062 20.265625 -0.125 C 20.609375 -1.425781 20.316406 -2.613281 19.390625 -3.6875 C 18.472656 -4.75 17.351562 -5.210938 16.03125 -5.078125 C 14.707031 -4.941406 13.25 -4.195312 11.65625 -2.84375 L 10.890625 -2.1875 C 9.316406 -0.832031 8.34375 0.5 7.96875 1.8125 C 7.601562 3.132812 7.890625 4.335938 8.828125 5.421875 C 9.742188 6.492188 10.863281 6.957031 12.1875 6.8125 C 13.507812 6.664062 14.972656 5.910156 16.578125 4.546875 Z M 17.328125 3.90625 "/></g></g></g><g fill="#ffffff" fill-opacity="1"><g transform="translate(594.535107, 253.060769)"><g><path d="M 9.3125 0.703125 L 3.5 4.875 L 1.0625 1.46875 L 17.578125 -10.359375 L 22.1875 -3.90625 C 23.070312 -2.675781 23.617188 -1.421875 23.828125 -0.140625 C 24.046875 1.128906 23.921875 2.3125 23.453125 3.40625 C 22.984375 4.507812 22.21875 5.441406 21.15625 6.203125 C 19.53125 7.359375 17.851562 7.71875 16.125 7.28125 C 14.40625 6.84375 12.84375 5.644531 11.4375 3.6875 Z M 12.078125 -1.265625 L 14.25 1.78125 C 14.882812 2.675781 15.582031 3.207031 16.34375 3.375 C 17.113281 3.550781 17.894531 3.359375 18.6875 2.796875 C 19.488281 2.210938 19.96875 1.503906 20.125 0.671875 C 20.28125 -0.160156 20.066406 -1.003906 19.484375 -1.859375 L 17.265625 -4.96875 Z M 12.078125 -1.265625 "/></g></g></g><g fill="#ffffff" fill-opacity="1"><g transform="translate(606.411332, 269.873838)"><g><path d="M 14.765625 7.5 L 10.640625 0.609375 L 5.96875 3.40625 L 10.8125 11.484375 L 7.9375 13.21875 L 0.9375 1.546875 L 18.359375 -8.90625 L 25.34375 2.75 L 22.4375 4.5 L 17.609375 -3.5625 L 13.453125 -1.078125 L 17.578125 5.8125 Z M 14.765625 7.5 "/></g></g></g><g fill="#ffffff" fill-opacity="1"><g transform="translate(615.756615, 285.535801)"><g><path d="M 10.796875 5.0625 L 9.328125 2.078125 L 2.671875 5.375 L 0.8125 1.625 L 19.015625 -7.390625 L 22.359375 -0.625 C 23.421875 1.519531 23.757812 3.410156 23.375 5.046875 C 22.988281 6.691406 21.925781 7.945312 20.1875 8.8125 C 18.9375 9.425781 17.765625 9.671875 16.671875 9.546875 C 15.578125 9.421875 14.515625 8.929688 13.484375 8.078125 L 8 15.71875 L 7.828125 15.796875 L 5.828125 11.78125 Z M 12.375 0.5625 L 13.859375 3.59375 C 14.328125 4.53125 14.925781 5.140625 15.65625 5.421875 C 16.382812 5.703125 17.171875 5.632812 18.015625 5.21875 C 18.867188 4.789062 19.421875 4.207031 19.671875 3.46875 C 19.929688 2.738281 19.8125 1.875 19.3125 0.875 L 17.828125 -2.140625 Z M 12.375 0.5625 "/></g></g></g><g fill="#ffffff" fill-opacity="1"><g transform="translate(624.712085, 303.829208)"><g><path d="M 22.015625 9.671875 L 19.734375 3.890625 L 4 10.109375 L 2.453125 6.21875 L 18.1875 0 L 15.9375 -5.703125 L 19.09375 -6.953125 L 25.171875 8.421875 Z M 22.015625 9.671875 "/></g></g></g><g fill="#ffffff" fill-opacity="1"><g transform="translate(631.849149, 322.484296)"><g><path d="M 1.921875 5.96875 L 0.640625 1.984375 L 19.96875 -4.265625 L 21.25 -0.28125 Z M 1.921875 5.96875 "/></g></g></g><g fill="#ffffff" fill-opacity="1"><g transform="translate(635.176569, 332.616595)"><g><path d="M 12.015625 11.390625 L 10.015625 3.609375 L 4.75 4.96875 L 7.09375 14.09375 L 3.84375 14.9375 L 0.453125 1.75 L 20.125 -3.3125 L 23.515625 9.84375 L 20.234375 10.6875 L 17.890625 1.59375 L 13.203125 2.796875 L 15.203125 10.578125 Z M 12.015625 11.390625 "/></g></g></g><g fill="#ffffff" fill-opacity="1"><g transform="translate(639.674888, 350.301099)"><g><path d="M 7.375 11.234375 C 8.15625 11.097656 8.707031 10.71875 9.03125 10.09375 C 9.351562 9.476562 9.617188 8.414062 9.828125 6.90625 C 10.035156 5.394531 10.296875 4.179688 10.609375 3.265625 C 11.441406 0.773438 12.894531 -0.644531 14.96875 -1 C 16.039062 -1.1875 17.054688 -1.050781 18.015625 -0.59375 C 18.972656 -0.132812 19.785156 0.617188 20.453125 1.671875 C 21.117188 2.734375 21.578125 3.972656 21.828125 5.390625 C 22.078125 6.816406 22.046875 8.132812 21.734375 9.34375 C 21.421875 10.550781 20.84375 11.546875 20 12.328125 C 19.164062 13.117188 18.144531 13.617188 16.9375 13.828125 L 16.21875 9.703125 C 17.132812 9.546875 17.796875 9.132812 18.203125 8.46875 C 18.609375 7.800781 18.71875 6.945312 18.53125 5.90625 C 18.351562 4.894531 18.003906 4.144531 17.484375 3.65625 C 16.972656 3.175781 16.367188 3 15.671875 3.125 C 15.023438 3.238281 14.535156 3.660156 14.203125 4.390625 C 13.878906 5.117188 13.640625 6.15625 13.484375 7.5 C 13.179688 9.96875 12.597656 11.828125 11.734375 13.078125 C 10.878906 14.335938 9.675781 15.101562 8.125 15.375 C 6.382812 15.675781 4.90625 15.253906 3.6875 14.109375 C 2.476562 12.972656 1.679688 11.296875 1.296875 9.078125 C 1.023438 7.535156 1.0625 6.082031 1.40625 4.71875 C 1.757812 3.363281 2.367188 2.269531 3.234375 1.4375 C 4.097656 0.601562 5.175781 0.078125 6.46875 -0.140625 L 7.1875 3.984375 C 4.976562 4.367188 4.101562 5.878906 4.5625 8.515625 C 4.738281 9.503906 5.070312 10.234375 5.5625 10.703125 C 6.050781 11.179688 6.65625 11.359375 7.375 11.234375 Z M 7.375 11.234375 "/></g></g></g><g clip-path="url(#5908231ae2)"><g clip-path="url(#5a5515f638)"><path fill="#ffaa3e" d="M 647.332031 394.472656 L 668.386719 394.472656 L 668.386719 415.527344 L 647.332031 415.527344 Z M 647.332031 394.472656 " fill-opacity="1" fill-rule="nonzero"/></g></g><g fill="#ffffff" fill-opacity="1"><g transform="translate(643.316162, 442.725381)"><g><path d="M -0.3125 1.78125 L 19.6875 5.3125 L 18.453125 12.3125 C 18.023438 14.75 17.234375 16.507812 16.078125 17.59375 C 14.921875 18.675781 13.445312 19.0625 11.65625 18.75 C 10.675781 18.570312 9.851562 18.164062 9.1875 17.53125 C 8.53125 16.90625 8.113281 16.113281 7.9375 15.15625 C 7.5 16.132812 6.835938 16.847656 5.953125 17.296875 C 5.078125 17.753906 4.070312 17.882812 2.9375 17.6875 C 1.019531 17.351562 -0.320312 16.484375 -1.09375 15.078125 C -1.863281 13.671875 -2.0625 11.832031 -1.6875 9.5625 Z M 7.65625 7.4375 L 2.265625 6.484375 L 1.65625 10.015625 C 1.476562 10.984375 1.570312 11.78125 1.9375 12.40625 C 2.300781 13.039062 2.894531 13.429688 3.71875 13.578125 C 5.539062 13.898438 6.632812 13.109375 7 11.203125 Z M 10.578125 7.953125 L 10.046875 11 C 9.710938 13.09375 10.359375 14.28125 11.984375 14.5625 C 12.890625 14.71875 13.585938 14.566406 14.078125 14.109375 C 14.578125 13.660156 14.925781 12.863281 15.125 11.71875 L 15.625 8.84375 Z M 10.578125 7.953125 "/></g></g></g><g fill="#ffffff" fill-opacity="1"><g transform="translate(639.703229, 462.751096)"><g><path d="M 15.203125 21.84375 L 2.28125 18.390625 C 0.125 17.816406 -1.394531 16.691406 -2.28125 15.015625 C -3.164062 13.335938 -3.300781 11.335938 -2.6875 9.015625 C -2.070312 6.710938 -0.984375 5.046875 0.578125 4.015625 C 2.148438 2.992188 4 2.757812 6.125 3.3125 L 19.203125 6.796875 L 18.125 10.828125 L 5.171875 7.375 C 3.878906 7.03125 2.859375 7.085938 2.109375 7.546875 C 1.359375 8.015625 0.835938 8.796875 0.546875 9.890625 C -0.0546875 12.148438 0.832031 13.617188 3.21875 14.296875 L 16.28125 17.78125 Z M 15.203125 21.84375 "/></g></g></g><g fill="#ffffff" fill-opacity="1"><g transform="translate(634.202647, 482.945496)"><g><path d="M 7.515625 12.078125 L 14.6875 19.15625 L 13.15625 23.453125 L 3.21875 12.796875 L -3.703125 10.3125 L -2.265625 6.296875 L 4.65625 8.78125 L 19.09375 6.90625 L 17.546875 11.21875 Z M 7.515625 12.078125 "/></g></g></g><g fill="#ffffff" fill-opacity="1"><g transform="translate(627.240665, 501.653023)"><g><path d="M -2.484375 5.75 L -0.828125 1.90625 L 17.8125 9.984375 L 16.15625 13.828125 Z M -2.484375 5.75 "/></g></g></g><g fill="#ffffff" fill-opacity="1"><g transform="translate(623.140046, 511.427074)"><g><path d="M -8.421875 16.28125 L -6.5 12.5625 L 9.09375 11.46875 L -2.765625 5.328125 L -0.828125 1.609375 L 17.203125 10.953125 L 15.265625 14.671875 L -0.359375 15.765625 L 11.53125 21.921875 L 9.609375 25.625 Z M -8.421875 16.28125 "/></g></g></g><g fill="#ffffff" fill-opacity="1"><g transform="translate(612.816976, 531.133907)"><g><path d="M -7.46875 16.4375 C -7.8125 15.320312 -7.820312 14.050781 -7.5 12.625 C -7.1875 11.195312 -6.578125 9.773438 -5.671875 8.359375 C -4.722656 6.878906 -3.570312 5.785156 -2.21875 5.078125 C -0.863281 4.378906 0.617188 4.117188 2.234375 4.296875 C 3.859375 4.484375 5.507812 5.101562 7.1875 6.15625 L 8.34375 6.890625 C 10.050781 7.984375 11.34375 9.21875 12.21875 10.59375 C 13.101562 11.96875 13.53125 13.40625 13.5 14.90625 C 13.46875 16.40625 12.988281 17.882812 12.0625 19.34375 C 10.757812 21.382812 9.257812 22.664062 7.5625 23.1875 C 5.863281 23.71875 4.019531 23.492188 2.03125 22.515625 L 4.21875 19.09375 C 5.3125 19.570312 6.253906 19.6875 7.046875 19.4375 C 7.835938 19.1875 8.535156 18.585938 9.140625 17.640625 C 9.910156 16.441406 10.046875 15.242188 9.546875 14.046875 C 9.046875 12.847656 7.910156 11.675781 6.140625 10.53125 L 5.046875 9.828125 C 3.242188 8.679688 1.664062 8.15625 0.3125 8.25 C -1.03125 8.34375 -2.125 9.046875 -2.96875 10.359375 C -3.8125 11.679688 -4.128906 12.8125 -3.921875 13.75 L -0.984375 15.640625 L 1.0625 12.421875 L 3.65625 14.078125 L -0.640625 20.8125 Z M -7.46875 16.4375 "/></g></g></g><g fill="#ffffff" fill-opacity="1"><g transform="translate(600.86903, 549.306877)"><g><path d="M -5.640625 -0.921875 L -3.5 -1.96875 L -3.0625 -1.03125 C -2.519531 0.144531 -1.800781 1.078125 -0.90625 1.765625 L 1.609375 3.609375 L -0.40625 6.34375 L -2.640625 4.6875 C -3.472656 4.070312 -4.160156 3.242188 -4.703125 2.203125 C -5.253906 1.171875 -5.566406 0.128906 -5.640625 -0.921875 Z M -5.640625 -0.921875 "/></g></g></g><g fill="#ffffff" fill-opacity="1"><g transform="translate(595.216703, 556.927749)"><g/></g></g><g fill="#ffffff" fill-opacity="1"><g transform="translate(589.392762, 564.367895)"><g><path d="M -4.3125 12.71875 C -3.71875 13.25 -3.078125 13.453125 -2.390625 13.328125 C -1.710938 13.203125 -0.71875 12.753906 0.59375 11.984375 C 1.914062 11.222656 3.035156 10.679688 3.953125 10.359375 C 6.421875 9.492188 8.4375 9.765625 10 11.171875 C 10.8125 11.910156 11.332031 12.796875 11.5625 13.828125 C 11.789062 14.859375 11.691406 15.960938 11.265625 17.140625 C 10.847656 18.328125 10.160156 19.453125 9.203125 20.515625 C 8.234375 21.585938 7.171875 22.367188 6.015625 22.859375 C 4.859375 23.359375 3.710938 23.519531 2.578125 23.34375 C 1.453125 23.175781 0.4375 22.6875 -0.46875 21.875 L 2.34375 18.765625 C 3.03125 19.378906 3.757812 19.640625 4.53125 19.546875 C 5.3125 19.460938 6.050781 19.03125 6.75 18.25 C 7.445312 17.488281 7.820312 16.753906 7.875 16.046875 C 7.9375 15.335938 7.703125 14.75 7.171875 14.28125 C 6.691406 13.832031 6.0625 13.703125 5.28125 13.890625 C 4.507812 14.085938 3.546875 14.535156 2.390625 15.234375 C 0.253906 16.523438 -1.566406 17.21875 -3.078125 17.3125 C -4.597656 17.40625 -5.941406 16.925781 -7.109375 15.875 C -8.421875 14.695312 -9 13.273438 -8.84375 11.609375 C -8.6875 9.953125 -7.851562 8.289062 -6.34375 6.625 C -5.300781 5.457031 -4.140625 4.59375 -2.859375 4.03125 C -1.578125 3.46875 -0.34375 3.269531 0.84375 3.4375 C 2.03125 3.601562 3.113281 4.125 4.09375 5 L 1.296875 8.109375 C -0.367188 6.609375 -2.097656 6.851562 -3.890625 8.84375 C -4.566406 9.582031 -4.941406 10.289062 -5.015625 10.96875 C -5.085938 11.65625 -4.851562 12.238281 -4.3125 12.71875 Z M -4.3125 12.71875 "/></g></g></g><g fill="#ffffff" fill-opacity="1"><g transform="translate(576.082003, 578.940125)"><g><path d="M -4.140625 16.03125 L 1.6875 10.515625 L -2.046875 6.5625 L -8.890625 13.03125 L -11.203125 10.59375 L -1.3125 1.25 L 12.640625 16.015625 L 2.765625 25.34375 L 0.4375 22.875 L 7.265625 16.421875 L 3.9375 12.90625 L -1.890625 18.421875 Z M -4.140625 16.03125 "/></g></g></g><g fill="#ffffff" fill-opacity="1"><g transform="translate(562.735948, 591.434228)"><g><path d="M -2.53125 6.390625 L -9.421875 11.984375 L -11.546875 9.375 L -1.40625 1.140625 L 11.40625 16.90625 L 8.15625 19.546875 Z M -2.53125 6.390625 "/></g></g></g><g fill="#ffffff" fill-opacity="1"><g transform="translate(548.956473, 602.529527)"><g><path d="M -3 6.1875 L -10.28125 11.25 L -12.203125 8.5 L -1.484375 1.03125 L 10.140625 17.6875 L 6.703125 20.09375 Z M -3 6.1875 "/></g></g></g><g fill="#ffffff" fill-opacity="1"><g transform="translate(534.247419, 612.56988)"><g><path d="M -5.34375 3.265625 L -1.765625 1.078125 L 8.84375 18.40625 L 5.265625 20.59375 Z M -5.34375 3.265625 "/></g></g></g><g fill="#ffffff" fill-opacity="1"><g transform="translate(525.273629, 618.212436)"><g><path d="M -16.25 8.46875 L -12.53125 6.546875 L 0.859375 14.625 L -5.3125 2.78125 L -1.609375 0.84375 L 7.78125 18.859375 L 4.078125 20.796875 L -9.34375 12.6875 L -3.15625 24.5625 L -6.859375 26.484375 Z M -16.25 8.46875 "/></g></g></g><g fill="#ffffff" fill-opacity="1"><g transform="translate(505.49984, 628.40359)"><g><path d="M -15.5625 9.171875 C -15.207031 8.046875 -14.488281 6.988281 -13.40625 6 C -12.320312 5.019531 -11.003906 4.210938 -9.453125 3.578125 C -7.828125 2.910156 -6.253906 2.675781 -4.734375 2.875 C -3.222656 3.082031 -1.859375 3.726562 -0.640625 4.8125 C 0.578125 5.894531 1.570312 7.34375 2.34375 9.15625 L 2.859375 10.421875 C 3.628906 12.304688 3.976562 14.066406 3.90625 15.703125 C 3.84375 17.335938 3.363281 18.757812 2.46875 19.96875 C 1.582031 21.175781 0.335938 22.109375 -1.265625 22.765625 C -3.503906 23.679688 -5.460938 23.863281 -7.140625 23.3125 C -8.828125 22.769531 -10.203125 21.535156 -11.265625 19.609375 L -7.515625 18.0625 C -6.898438 19.0625 -6.195312 19.6875 -5.40625 19.9375 C -4.613281 20.195312 -3.695312 20.113281 -2.65625 19.6875 C -1.351562 19.144531 -0.554688 18.238281 -0.265625 16.96875 C 0.015625 15.707031 -0.234375 14.097656 -1.015625 12.140625 L -1.515625 10.9375 C -2.328125 8.96875 -3.3125 7.628906 -4.46875 6.921875 C -5.632812 6.222656 -6.9375 6.171875 -8.375 6.765625 C -9.832031 7.359375 -10.742188 8.097656 -11.109375 8.984375 L -9.78125 12.234375 L -6.265625 10.78125 L -5.109375 13.625 L -12.484375 16.671875 Z M -15.5625 9.171875 "/></g></g></g><g fill="#ffffff" fill-opacity="1"><g transform="translate(485.276795, 636.40939)"><g><path d="M -4.078125 -4 L -1.71875 -3.625 L -1.921875 -2.609375 C -2.148438 -1.328125 -2.09375 -0.148438 -1.75 0.921875 L -0.75 3.875 L -3.984375 4.96875 L -4.859375 2.3125 C -5.179688 1.332031 -5.265625 0.265625 -5.109375 -0.890625 C -4.960938 -2.046875 -4.617188 -3.082031 -4.078125 -4 Z M -4.078125 -4 "/></g></g></g><g fill="#ffffff" fill-opacity="1"><g transform="translate(476.27206, 639.394247)"><g/></g></g><g fill="#ffffff" fill-opacity="1"><g transform="translate(467.264095, 642.161497)"><g><path d="M -12.03125 6.984375 L -4.875 5.375 L -4.4375 1 L -0.09375 0.015625 L -3.015625 21.484375 L -6.796875 22.34375 L -18.671875 4.1875 L -14.328125 3.21875 Z M -5.25 8.9375 L -10.1875 10.046875 L -6.03125 16.890625 Z M -5.25 8.9375 "/></g></g></g><g fill="#ffffff" fill-opacity="1"><g transform="translate(446.463093, 646.755864)"><g><path d="M -18.171875 2.375 L -14.015625 1.828125 L -4.21875 14.03125 L -5.953125 0.78125 L -1.796875 0.234375 L 0.84375 20.375 L -3.3125 20.921875 L -13.125 8.703125 L -11.390625 21.984375 L -15.53125 22.515625 Z M -18.171875 2.375 "/></g></g></g><g fill="#ffffff" fill-opacity="1"><g transform="translate(424.375939, 649.51753)"><g><path d="M -1.8125 0.078125 L -0.984375 20.375 L -7.234375 20.625 C -9.003906 20.695312 -10.609375 20.359375 -12.046875 19.609375 C -13.492188 18.859375 -14.640625 17.753906 -15.484375 16.296875 C -16.335938 14.847656 -16.800781 13.179688 -16.875 11.296875 L -16.921875 10.359375 C -16.992188 8.484375 -16.671875 6.796875 -15.953125 5.296875 C -15.242188 3.796875 -14.195312 2.613281 -12.8125 1.75 C -11.4375 0.882812 -9.867188 0.410156 -8.109375 0.328125 Z M -5.3125 17.15625 L -5.859375 3.609375 L -7.875 3.6875 C -9.5 3.75 -10.722656 4.332031 -11.546875 5.4375 C -12.367188 6.539062 -12.75 8.082031 -12.6875 10.0625 L -12.640625 11.140625 C -12.554688 13.203125 -12.066406 14.75 -11.171875 15.78125 C -10.273438 16.820312 -9.007812 17.304688 -7.375 17.234375 Z M -5.3125 17.15625 "/></g></g></g><g fill="#ffffff" fill-opacity="1"><g transform="translate(403.513336, 650.11644)"><g/></g></g><g fill="#ffffff" fill-opacity="1"><g transform="translate(394.074871, 650.007263)"><g><path d="M -9.921875 6.625 L -6.609375 6.90625 L -5.984375 -0.5 L -1.8125 -0.15625 L -3.53125 20.078125 L -11.046875 19.4375 C -13.429688 19.238281 -15.226562 18.550781 -16.4375 17.375 C -17.644531 16.195312 -18.164062 14.640625 -18 12.703125 C -17.875 11.316406 -17.472656 10.1875 -16.796875 9.3125 C -16.128906 8.4375 -15.164062 7.78125 -13.90625 7.34375 L -17.578125 -1.296875 L -17.5625 -1.484375 L -13.09375 -1.109375 Z M -6.90625 10.296875 L -10.265625 10 C -11.304688 9.914062 -12.132812 10.109375 -12.75 10.578125 C -13.363281 11.054688 -13.710938 11.765625 -13.796875 12.703125 C -13.878906 13.648438 -13.671875 14.421875 -13.171875 15.015625 C -12.679688 15.617188 -11.878906 15.96875 -10.765625 16.0625 L -7.421875 16.359375 Z M -6.90625 10.296875 "/></g></g></g><g fill="#ffffff" fill-opacity="1"><g transform="translate(373.764997, 648.152858)"><g><path d="M -15.296875 6.359375 L -7.375 7.6875 L -6.46875 2.328125 L -15.765625 0.78125 L -15.21875 -2.53125 L -1.78125 -0.296875 L -5.125 19.734375 L -18.53125 17.5 L -17.96875 14.15625 L -8.703125 15.703125 L -7.90625 10.921875 L -15.828125 9.59375 Z M -15.296875 6.359375 "/></g></g></g><g fill="#ffffff" fill-opacity="1"><g transform="translate(355.80734, 645.157234)"><g><path d="M -17.765625 -4.53125 L -13.703125 -3.484375 L -9.109375 11.46875 L -5.8125 -1.484375 L -1.75 -0.453125 L -6.765625 19.234375 L -10.828125 18.203125 L -15.421875 3.203125 L -18.734375 16.1875 L -22.78125 15.15625 Z M -17.765625 -4.53125 "/></g></g></g><g fill="#ffffff" fill-opacity="1"><g transform="translate(334.260237, 639.516417)"><g><path d="M -21.71875 10.3125 L -15.859375 12.375 L -10.265625 -3.59375 L -6.3125 -2.21875 L -11.90625 13.75 L -6.125 15.78125 L -7.25 18.984375 L -22.84375 13.515625 Z M -21.71875 10.3125 "/></g></g></g><g fill="#ffffff" fill-opacity="1"><g transform="translate(315.484106, 632.703282)"><g><path d="M -5.765625 -2.4375 L -1.90625 -0.8125 L -9.828125 17.890625 L -13.6875 16.265625 Z M -5.765625 -2.4375 "/></g></g></g><g fill="#ffffff" fill-opacity="1"><g transform="translate(305.674692, 628.685113)"><g><path d="M -16.34375 -8.296875 L -12.609375 -6.390625 L -11.390625 9.1875 L -5.34375 -2.71875 L -1.609375 -0.8125 L -10.796875 17.296875 L -14.53125 15.390625 L -15.75 -0.234375 L -21.8125 11.703125 L -25.53125 9.8125 Z M -16.34375 -8.296875 "/></g></g></g><g fill="#ffffff" fill-opacity="1"><g transform="translate(285.887153, 618.520706)"><g><path d="M -16.5 -7.328125 C -15.382812 -7.691406 -14.109375 -7.71875 -12.671875 -7.40625 C -11.242188 -7.101562 -9.820312 -6.503906 -8.40625 -5.609375 C -6.914062 -4.671875 -5.816406 -3.523438 -5.109375 -2.171875 C -4.398438 -0.828125 -4.128906 0.648438 -4.296875 2.265625 C -4.460938 3.890625 -5.054688 5.539062 -6.078125 7.21875 L -6.8125 8.390625 C -7.894531 10.109375 -9.117188 11.414062 -10.484375 12.3125 C -11.847656 13.207031 -13.28125 13.640625 -14.78125 13.609375 C -16.289062 13.585938 -17.78125 13.117188 -19.25 12.203125 C -21.289062 10.921875 -22.582031 9.4375 -23.125 7.75 C -23.664062 6.0625 -23.457031 4.21875 -22.5 2.21875 L -19.0625 4.375 C -19.519531 5.46875 -19.617188 6.40625 -19.359375 7.1875 C -19.109375 7.976562 -18.507812 8.675781 -17.5625 9.28125 C -16.351562 10.03125 -15.148438 10.148438 -13.953125 9.640625 C -12.753906 9.140625 -11.597656 8.003906 -10.484375 6.234375 L -9.796875 5.125 C -8.660156 3.320312 -8.144531 1.742188 -8.25 0.390625 C -8.351562 -0.960938 -9.066406 -2.050781 -10.390625 -2.875 C -11.722656 -3.71875 -12.851562 -4.03125 -13.78125 -3.8125 L -15.640625 -0.84375 L -12.40625 1.171875 L -14.046875 3.765625 L -20.8125 -0.46875 Z M -16.5 -7.328125 "/></g></g></g><g fill="#ffffff" fill-opacity="1"><g transform="translate(267.615807, 606.724943)"><g/></g></g><g fill="#ffffff" fill-opacity="1"><g transform="translate(259.905368, 601.285769)"><g><path d="M -9.1875 1.71875 L -4.640625 -3.8125 L -1.40625 -1.15625 L -14.3125 14.53125 L -20.421875 9.5 C -21.597656 8.539062 -22.453125 7.472656 -22.984375 6.296875 C -23.523438 5.128906 -23.707031 3.945312 -23.53125 2.75 C -23.363281 1.5625 -22.863281 0.460938 -22.03125 -0.546875 C -20.769531 -2.078125 -19.25 -2.851562 -17.46875 -2.875 C -15.6875 -2.894531 -13.867188 -2.140625 -12.015625 -0.609375 Z M -11.34375 4.328125 L -14.21875 1.953125 C -15.070312 1.253906 -15.890625 0.921875 -16.671875 0.953125 C -17.453125 0.992188 -18.148438 1.382812 -18.765625 2.125 C -19.398438 2.894531 -19.679688 3.703125 -19.609375 4.546875 C -19.546875 5.398438 -19.125 6.15625 -18.34375 6.8125 L -15.390625 9.25 Z M -11.34375 4.328125 "/></g></g></g><g fill="#ffffff" fill-opacity="1"><g transform="translate(244.093407, 588.157227)"><g><path d="M -11.875 -1.1875 L -9.5 1.140625 L -4.296875 -4.1875 L -1.296875 -1.265625 L -15.484375 13.265625 L -20.890625 8 C -22.597656 6.320312 -23.539062 4.644531 -23.71875 2.96875 C -23.90625 1.289062 -23.320312 -0.242188 -21.96875 -1.640625 C -21 -2.628906 -19.972656 -3.242188 -18.890625 -3.484375 C -17.816406 -3.734375 -16.65625 -3.628906 -15.40625 -3.171875 L -12.734375 -12.171875 L -12.609375 -12.3125 L -9.40625 -9.1875 Z M -11.859375 3.5625 L -14.265625 1.203125 C -15.023438 0.460938 -15.789062 0.0820312 -16.5625 0.0625 C -17.34375 0.0390625 -18.0625 0.363281 -18.71875 1.03125 C -19.394531 1.71875 -19.734375 2.445312 -19.734375 3.21875 C -19.734375 4 -19.332031 4.785156 -18.53125 5.578125 L -16.125 7.921875 Z M -11.859375 3.5625 "/></g></g></g><g fill="#ffffff" fill-opacity="1"><g transform="translate(229.5833, 573.910123)"><g><path d="M -19.390625 -7.71875 C -17.878906 -9.019531 -16.320312 -9.890625 -14.71875 -10.328125 C -13.113281 -10.773438 -11.570312 -10.765625 -10.09375 -10.296875 C -8.613281 -9.835938 -7.320312 -8.960938 -6.21875 -7.671875 C -5.113281 -6.398438 -4.4375 -5 -4.1875 -3.46875 C -3.945312 -1.945312 -4.160156 -0.421875 -4.828125 1.109375 C -5.503906 2.648438 -6.578125 4.054688 -8.046875 5.328125 L -8.8125 5.984375 C -10.320312 7.285156 -11.890625 8.15625 -13.515625 8.59375 C -15.140625 9.039062 -16.6875 9.03125 -18.15625 8.5625 C -19.632812 8.09375 -20.925781 7.210938 -22.03125 5.921875 C -23.132812 4.640625 -23.804688 3.234375 -24.046875 1.703125 C -24.285156 0.179688 -24.0625 -1.34375 -23.375 -2.875 C -22.6875 -4.414062 -21.585938 -5.832031 -20.078125 -7.125 Z M -17.328125 -3.90625 C -18.953125 -2.507812 -19.929688 -1.164062 -20.265625 0.125 C -20.609375 1.425781 -20.316406 2.613281 -19.390625 3.6875 C -18.472656 4.75 -17.351562 5.210938 -16.03125 5.078125 C -14.707031 4.941406 -13.25 4.195312 -11.65625 2.84375 L -10.890625 2.1875 C -9.316406 0.832031 -8.34375 -0.5 -7.96875 -1.8125 C -7.601562 -3.132812 -7.890625 -4.335938 -8.828125 -5.421875 C -9.742188 -6.492188 -10.863281 -6.957031 -12.1875 -6.8125 C -13.507812 -6.664062 -14.972656 -5.910156 -16.578125 -4.546875 Z M -17.328125 -3.90625 "/></g></g></g><g fill="#ffffff" fill-opacity="1"><g transform="translate(215.459593, 557.272111)"><g><path d="M -9.3125 -0.703125 L -3.5 -4.875 L -1.0625 -1.46875 L -17.578125 10.359375 L -22.1875 3.90625 C -23.070312 2.675781 -23.617188 1.421875 -23.828125 0.140625 C -24.046875 -1.128906 -23.921875 -2.3125 -23.453125 -3.40625 C -22.984375 -4.507812 -22.21875 -5.441406 -21.15625 -6.203125 C -19.53125 -7.359375 -17.851562 -7.71875 -16.125 -7.28125 C -14.40625 -6.84375 -12.84375 -5.644531 -11.4375 -3.6875 Z M -12.078125 1.265625 L -14.25 -1.78125 C -14.882812 -2.675781 -15.582031 -3.207031 -16.34375 -3.375 C -17.113281 -3.550781 -17.894531 -3.359375 -18.6875 -2.796875 C -19.488281 -2.210938 -19.96875 -1.503906 -20.125 -0.671875 C -20.28125 0.160156 -20.066406 1.003906 -19.484375 1.859375 L -17.265625 4.96875 Z M -12.078125 1.265625 "/></g></g></g><g fill="#ffffff" fill-opacity="1"><g transform="translate(203.583314, 540.459061)"><g><path d="M -14.765625 -7.5 L -10.640625 -0.609375 L -5.96875 -3.40625 L -10.8125 -11.484375 L -7.9375 -13.21875 L -0.9375 -1.546875 L -18.359375 8.90625 L -25.34375 -2.75 L -22.4375 -4.5 L -17.609375 3.5625 L -13.453125 1.078125 L -17.578125 -5.8125 Z M -14.765625 -7.5 "/></g></g></g><g fill="#ffffff" fill-opacity="1"><g transform="translate(194.238076, 524.797126)"><g><path d="M -10.796875 -5.0625 L -9.328125 -2.078125 L -2.671875 -5.375 L -0.8125 -1.625 L -19.015625 7.390625 L -22.359375 0.625 C -23.421875 -1.519531 -23.757812 -3.410156 -23.375 -5.046875 C -22.988281 -6.691406 -21.925781 -7.945312 -20.1875 -8.8125 C -18.9375 -9.425781 -17.765625 -9.671875 -16.671875 -9.546875 C -15.578125 -9.421875 -14.515625 -8.929688 -13.484375 -8.078125 L -8 -15.71875 L -7.828125 -15.796875 L -5.828125 -11.78125 Z M -12.375 -0.5625 L -13.859375 -3.59375 C -14.328125 -4.53125 -14.925781 -5.140625 -15.65625 -5.421875 C -16.382812 -5.703125 -17.171875 -5.632812 -18.015625 -5.21875 C -18.867188 -4.789062 -19.421875 -4.207031 -19.671875 -3.46875 C -19.929688 -2.738281 -19.8125 -1.875 -19.3125 -0.875 L -17.828125 2.140625 Z M -12.375 -0.5625 "/></g></g></g><g fill="#ffffff" fill-opacity="1"><g transform="translate(185.282558, 506.503715)"><g><path d="M -22.015625 -9.671875 L -19.734375 -3.890625 L -4 -10.109375 L -2.453125 -6.21875 L -18.1875 0 L -15.9375 5.703125 L -19.09375 6.953125 L -25.171875 -8.421875 Z M -22.015625 -9.671875 "/></g></g></g><g fill="#ffffff" fill-opacity="1"><g transform="translate(178.145525, 487.848643)"><g><path d="M -1.921875 -5.96875 L -0.640625 -1.984375 L -19.96875 4.265625 L -21.25 0.28125 Z M -1.921875 -5.96875 "/></g></g></g><g fill="#ffffff" fill-opacity="1"><g transform="translate(174.81811, 477.716328)"><g><path d="M -12.015625 -11.390625 L -10.015625 -3.609375 L -4.75 -4.96875 L -7.09375 -14.09375 L -3.84375 -14.9375 L -0.453125 -1.75 L -20.125 3.3125 L -23.515625 -9.84375 L -20.234375 -10.6875 L -17.890625 -1.59375 L -13.203125 -2.796875 L -15.203125 -10.578125 Z M -12.015625 -11.390625 "/></g></g></g><g fill="#ffffff" fill-opacity="1"><g transform="translate(170.319779, 460.03183)"><g><path d="M -7.375 -11.234375 C -8.15625 -11.097656 -8.707031 -10.71875 -9.03125 -10.09375 C -9.351562 -9.476562 -9.617188 -8.414062 -9.828125 -6.90625 C -10.035156 -5.394531 -10.296875 -4.179688 -10.609375 -3.265625 C -11.441406 -0.773438 -12.894531 0.644531 -14.96875 1 C -16.039062 1.1875 -17.054688 1.050781 -18.015625 0.59375 C -18.972656 0.132812 -19.785156 -0.617188 -20.453125 -1.671875 C -21.117188 -2.734375 -21.578125 -3.972656 -21.828125 -5.390625 C -22.078125 -6.816406 -22.046875 -8.132812 -21.734375 -9.34375 C -21.421875 -10.550781 -20.84375 -11.546875 -20 -12.328125 C -19.164062 -13.117188 -18.144531 -13.617188 -16.9375 -13.828125 L -16.21875 -9.703125 C -17.132812 -9.546875 -17.796875 -9.132812 -18.203125 -8.46875 C -18.609375 -7.800781 -18.71875 -6.945312 -18.53125 -5.90625 C -18.351562 -4.894531 -18.003906 -4.144531 -17.484375 -3.65625 C -16.972656 -3.175781 -16.367188 -3 -15.671875 -3.125 C -15.023438 -3.238281 -14.535156 -3.660156 -14.203125 -4.390625 C -13.878906 -5.117188 -13.640625 -6.15625 -13.484375 -7.5 C -13.179688 -9.96875 -12.597656 -11.828125 -11.734375 -13.078125 C -10.878906 -14.335938 -9.675781 -15.101562 -8.125 -15.375 C -6.382812 -15.675781 -4.90625 -15.253906 -3.6875 -14.109375 C -2.476562 -12.972656 -1.679688 -11.296875 -1.296875 -9.078125 C -1.023438 -7.535156 -1.0625 -6.082031 -1.40625 -4.71875 C -1.757812 -3.363281 -2.367188 -2.269531 -3.234375 -1.4375 C -4.097656 -0.601562 -5.175781 -0.078125 -6.46875 0.140625 L -7.1875 -3.984375 C -4.976562 -4.367188 -4.101562 -5.878906 -4.5625 -8.515625 C -4.738281 -9.503906 -5.070312 -10.234375 -5.5625 -10.703125 C -6.050781 -11.179688 -6.65625 -11.359375 -7.375 -11.234375 Z M -7.375 -11.234375 "/></g></g></g><g clip-path="url(#22154a9111)"><path fill="#ffffff" d="M 362.851562 375.109375 L 361.867188 375.109375 L 361.867188 432.191406 C 361.867188 439.800781 368.035156 445.972656 375.644531 445.972656 L 409.402344 445.972656 L 409.402344 432.683594 L 376.136719 432.683594 L 376.136719 375.109375 Z M 418.734375 375.109375 L 417.75 375.109375 L 417.75 432.21875 C 417.75 439.816406 423.902344 445.980469 431.5 445.996094 L 465.578125 446.070312 L 466.566406 446.070312 L 466.566406 432.78125 L 432.019531 432.78125 L 432.019531 415.363281 L 460.464844 415.363281 L 460.464844 402.074219 L 432.019531 402.074219 L 432.019531 388.394531 L 466.566406 388.394531 L 466.566406 375.109375 Z M 476.445312 375.109375 L 475.460938 375.109375 L 475.460938 432.21875 C 475.460938 439.816406 481.609375 445.980469 489.210938 445.996094 L 523.289062 446.070312 L 524.277344 446.070312 L 524.277344 432.78125 L 489.730469 432.78125 L 489.730469 415.363281 L 518.175781 415.363281 L 518.175781 402.074219 L 489.730469 402.074219 L 489.730469 388.394531 L 524.277344 388.394531 L 524.277344 375.109375 Z M 534.15625 375.109375 L 533.171875 375.109375 L 533.171875 432.191406 C 533.171875 439.800781 539.339844 445.972656 546.949219 445.972656 L 580.707031 445.972656 L 580.707031 432.683594 L 547.441406 432.683594 L 547.441406 375.109375 Z M 534.15625 375.109375 " fill-opacity="1" fill-rule="nonzero"/></g><g clip-path="url(#40af823380)"><path stroke-linecap="butt" transform="matrix(0.984197, 0, 0, 0.984197, 231.951906, 323.930805)" fill="none" stroke-linejoin="miter" d="M 133.001447 52.00032 L 132.001267 52.00032 L 132.001267 109.998889 C 132.001267 117.730444 138.268272 124.001418 145.999827 124.001418 L 180.299672 124.001418 L 180.299672 110.498979 L 146.499917 110.498979 L 146.499917 52.00032 Z M 189.781543 52.00032 L 188.781362 52.00032 L 188.781362 110.026672 C 188.781362 117.74632 195.032491 124.009356 202.752139 124.025231 L 237.37744 124.100642 L 238.381589 124.100642 L 238.381589 110.598203 L 203.280012 110.598203 L 203.280012 92.900563 L 232.182057 92.900563 L 232.182057 79.398125 L 203.280012 79.398125 L 203.280012 65.498789 L 238.381589 65.498789 L 238.381589 52.00032 Z M 248.419116 52.00032 L 247.418936 52.00032 L 247.418936 110.026672 C 247.418936 117.74632 253.666096 124.009356 261.389713 124.025231 L 296.015013 124.100642 L 297.019163 124.100642 L 297.019163 110.598203 L 261.917586 110.598203 L 261.917586 92.900563 L 290.819631 92.900563 L 290.819631 79.398125 L 261.917586 79.398125 L 261.917586 65.498789 L 297.019163 65.498789 L 297.019163 52.00032 Z M 307.05669 52.00032 L 306.056509 52.00032 L 306.056509 109.998889 C 306.056509 117.730444 312.323514 124.001418 320.055069 124.001418 L 354.354914 124.001418 L 354.354914 110.498979 L 320.555159 110.498979 L 320.555159 52.00032 Z M 307.05669 52.00032 " stroke="#005ca8" stroke-width="2" stroke-opacity="1" stroke-miterlimit="4"/></g><path fill="#ffaa3e" d="M 409.105469 404.636719 C 409.105469 405.476562 409.027344 406.308594 408.863281 407.132812 C 408.699219 407.953125 408.453125 408.753906 408.132812 409.53125 C 407.8125 410.308594 407.417969 411.042969 406.949219 411.742188 C 406.484375 412.441406 405.953125 413.089844 405.359375 413.683594 C 404.765625 414.277344 404.121094 414.804688 403.421875 415.273438 C 402.722656 415.738281 401.984375 416.132812 401.210938 416.457031 C 400.433594 416.777344 399.632812 417.019531 398.808594 417.183594 C 397.984375 417.347656 397.152344 417.429688 396.3125 417.429688 C 395.472656 417.429688 394.640625 417.347656 393.816406 417.183594 C 392.992188 417.019531 392.191406 416.777344 391.417969 416.457031 C 390.640625 416.132812 389.902344 415.738281 389.203125 415.273438 C 388.507812 414.804688 387.859375 414.277344 387.265625 413.683594 C 386.671875 413.089844 386.140625 412.441406 385.675781 411.742188 C 385.207031 411.042969 384.8125 410.308594 384.492188 409.53125 C 384.171875 408.753906 383.929688 407.953125 383.765625 407.132812 C 383.601562 406.308594 383.519531 405.476562 383.519531 404.636719 C 383.519531 403.792969 383.601562 402.960938 383.765625 402.140625 C 383.929688 401.316406 384.171875 400.515625 384.492188 399.738281 C 384.8125 398.960938 385.207031 398.226562 385.675781 397.527344 C 386.140625 396.828125 386.671875 396.183594 387.265625 395.585938 C 387.859375 394.992188 388.507812 394.464844 389.203125 393.996094 C 389.902344 393.53125 390.640625 393.136719 391.417969 392.8125 C 392.191406 392.492188 392.992188 392.25 393.816406 392.085938 C 394.640625 391.921875 395.472656 391.839844 396.3125 391.839844 C 397.152344 391.839844 397.984375 391.921875 398.808594 392.085938 C 399.632812 392.25 400.433594 392.492188 401.210938 392.8125 C 401.984375 393.136719 402.722656 393.53125 403.421875 393.996094 C 404.121094 394.464844 404.765625 394.992188 405.359375 395.585938 C 405.953125 396.183594 406.484375 396.828125 406.949219 397.527344 C 407.417969 398.226562 407.8125 398.960938 408.132812 399.738281 C 408.453125 400.515625 408.699219 401.316406 408.863281 402.140625 C 409.027344 402.960938 409.105469 403.792969 409.105469 404.636719 Z M 409.105469 404.636719 " fill-opacity="1" fill-rule="nonzero"/><path fill="#ffaa3e" d="M 247.5625 444.769531 C 247.3125 444.769531 247.066406 444.71875 246.835938 444.625 C 246.605469 444.527344 246.398438 444.386719 246.21875 444.214844 C 246.042969 444.039062 245.90625 443.828125 245.808594 443.597656 C 245.714844 443.367188 245.667969 443.121094 245.667969 442.871094 L 245.667969 382.5625 C 245.667969 382.3125 245.714844 382.066406 245.808594 381.835938 C 245.90625 381.609375 246.042969 381.398438 246.21875 381.222656 C 246.398438 381.046875 246.605469 380.90625 246.835938 380.8125 C 247.066406 380.71875 247.3125 380.667969 247.5625 380.667969 C 248.0625 380.667969 248.542969 380.867188 248.898438 381.222656 C 249.253906 381.578125 249.453125 382.058594 249.453125 382.5625 L 249.453125 442.875 C 249.460938 443.917969 248.609375 444.769531 247.5625 444.769531 Z M 334.453125 444.769531 C 334.207031 444.769531 333.960938 444.71875 333.730469 444.625 C 333.5 444.527344 333.289062 444.386719 333.113281 444.214844 C 332.9375 444.039062 332.800781 443.828125 332.703125 443.597656 C 332.609375 443.367188 332.558594 443.121094 332.558594 442.871094 L 332.558594 382.5625 C 332.558594 381.511719 333.410156 380.667969 334.453125 380.667969 C 335.5 380.667969 336.347656 381.519531 336.347656 382.5625 L 336.347656 442.875 C 336.347656 443.375 336.148438 443.855469 335.792969 444.210938 C 335.4375 444.566406 334.957031 444.765625 334.453125 444.769531 Z M 334.453125 444.769531 " fill-opacity="1" fill-rule="nonzero"/><g clip-path="url(#18598884ff)"><path fill="#ffaa3e" d="M 340.542969 390.265625 C 340.054688 390.265625 339.585938 390.078125 339.230469 389.738281 L 291.011719 343.71875 L 242.785156 389.738281 C 242.421875 390.085938 241.929688 390.269531 241.433594 390.265625 C 240.929688 390.25 240.453125 390.039062 240.105469 389.679688 L 232.476562 381.683594 C 232.304688 381.503906 232.171875 381.292969 232.082031 381.0625 C 231.992188 380.828125 231.945312 380.582031 231.953125 380.332031 C 231.957031 380.085938 232.011719 379.839844 232.113281 379.609375 C 232.214844 379.382812 232.359375 379.179688 232.539062 379.007812 L 245.664062 366.480469 L 245.664062 337.398438 C 245.660156 337.152344 245.710938 336.90625 245.804688 336.675781 C 245.902344 336.445312 246.039062 336.234375 246.214844 336.058594 C 246.390625 335.882812 246.601562 335.746094 246.832031 335.648438 C 247.0625 335.554688 247.308594 335.503906 247.554688 335.503906 L 263.175781 335.503906 C 263.421875 335.503906 263.667969 335.554688 263.898438 335.648438 C 264.128906 335.746094 264.339844 335.882812 264.515625 336.058594 C 264.691406 336.234375 264.828125 336.445312 264.925781 336.675781 C 265.019531 336.90625 265.070312 337.152344 265.066406 337.398438 L 265.066406 347.957031 L 289.691406 324.457031 C 290.042969 324.117188 290.511719 323.929688 291 323.929688 C 291.488281 323.929688 291.957031 324.117188 292.3125 324.457031 L 349.46875 379.007812 C 349.648438 379.179688 349.792969 379.382812 349.894531 379.609375 C 349.996094 379.839844 350.050781 380.085938 350.054688 380.332031 C 350.058594 380.582031 350.015625 380.828125 349.925781 381.0625 C 349.835938 381.292969 349.703125 381.503906 349.53125 381.683594 L 341.902344 389.679688 C 341.730469 389.859375 341.523438 390.003906 341.296875 390.105469 C 341.066406 390.203125 340.824219 390.257812 340.574219 390.265625 Z M 291.011719 339.207031 C 291.480469 339.207031 291.953125 339.382812 292.320312 339.730469 L 340.480469 385.691406 L 345.492188 380.441406 L 291.011719 328.449219 L 264.492188 353.753906 C 263.945312 354.28125 263.132812 354.425781 262.433594 354.125 C 261.738281 353.828125 261.285156 353.144531 261.285156 352.386719 L 261.285156 339.292969 L 249.460938 339.292969 L 249.460938 367.292969 C 249.460938 367.550781 249.40625 367.800781 249.308594 368.039062 C 249.207031 368.273438 249.058594 368.484375 248.875 368.664062 L 236.535156 380.441406 L 241.542969 385.691406 L 289.707031 339.730469 C 290.0625 339.378906 290.535156 339.207031 291.011719 339.207031 Z M 291.011719 339.207031 " fill-opacity="1" fill-rule="nonzero"/></g><path fill="#ffaa3e" d="M 267.308594 406.4375 C 267.054688 406.4375 266.804688 406.386719 266.570312 406.289062 C 266.335938 406.191406 266.125 406.046875 265.949219 405.863281 C 262.90625 402.738281 261.230469 398.609375 261.230469 394.242188 C 261.230469 385.058594 268.699219 377.585938 277.886719 377.585938 C 284.140625 377.585938 289.8125 381.039062 292.6875 386.597656 C 292.800781 386.816406 292.871094 387.058594 292.890625 387.304688 C 292.914062 387.554688 292.886719 387.804688 292.808594 388.042969 C 292.734375 388.277344 292.613281 388.5 292.453125 388.6875 C 292.292969 388.878906 292.09375 389.035156 291.875 389.148438 C 291.652344 389.265625 291.410156 389.332031 291.164062 389.355469 C 290.917969 389.375 290.667969 389.347656 290.429688 389.273438 C 290.191406 389.195312 289.972656 389.074219 289.78125 388.914062 C 289.59375 388.753906 289.433594 388.558594 289.320312 388.335938 C 287.097656 384.042969 282.71875 381.375 277.886719 381.375 C 270.792969 381.375 265.023438 387.144531 265.023438 394.238281 C 265.015625 397.589844 266.324219 400.8125 268.667969 403.210938 C 268.839844 403.390625 268.976562 403.601562 269.070312 403.832031 C 269.160156 404.0625 269.207031 404.308594 269.203125 404.558594 C 269.199219 404.808594 269.148438 405.054688 269.050781 405.28125 C 268.949219 405.511719 268.808594 405.714844 268.628906 405.890625 C 268.457031 406.066406 268.25 406.203125 268.023438 406.296875 C 267.796875 406.390625 267.554688 406.4375 267.308594 406.4375 Z M 267.308594 406.4375 " fill-opacity="1" fill-rule="nonzero"/><path fill="#ffaa3e" d="M 314.691406 406.4375 C 314.195312 406.441406 313.722656 406.246094 313.367188 405.898438 C 313.191406 405.726562 313.046875 405.519531 312.949219 405.292969 C 312.851562 405.0625 312.796875 404.816406 312.792969 404.570312 C 312.792969 404.320312 312.835938 404.074219 312.929688 403.839844 C 313.019531 403.609375 313.15625 403.398438 313.332031 403.222656 C 315.679688 400.808594 316.976562 397.621094 316.976562 394.246094 C 316.976562 387.152344 311.207031 381.382812 304.113281 381.382812 C 299.285156 381.382812 294.902344 384.046875 292.675781 388.34375 C 292.195312 389.269531 291.050781 389.636719 290.125 389.15625 C 289.195312 388.671875 288.828125 387.53125 289.3125 386.601562 C 292.1875 381.042969 297.859375 377.59375 304.113281 377.59375 C 313.296875 377.59375 320.769531 385.0625 320.769531 394.25 C 320.769531 398.617188 319.09375 402.742188 316.046875 405.867188 C 315.871094 406.050781 315.660156 406.195312 315.429688 406.292969 C 315.195312 406.390625 314.945312 406.441406 314.691406 406.4375 Z M 314.691406 406.4375 " fill-opacity="1" fill-rule="nonzero"/><path fill="#ffaa3e" d="M 291 427.285156 C 290.539062 427.285156 290.09375 427.117188 289.746094 426.8125 L 266.058594 405.960938 C 265.679688 405.628906 265.449219 405.160156 265.417969 404.660156 C 265.386719 404.15625 265.554688 403.664062 265.886719 403.285156 C 266.21875 402.910156 266.683594 402.679688 267.1875 402.648438 C 267.6875 402.613281 268.183594 402.785156 268.558594 403.113281 L 291 422.863281 L 313.4375 403.121094 C 313.625 402.953125 313.84375 402.828125 314.078125 402.75 C 314.3125 402.667969 314.5625 402.632812 314.8125 402.648438 C 315.058594 402.667969 315.304688 402.730469 315.527344 402.839844 C 315.75 402.953125 315.949219 403.105469 316.113281 403.292969 C 316.277344 403.476562 316.402344 403.695312 316.484375 403.929688 C 316.566406 404.167969 316.597656 404.414062 316.582031 404.664062 C 316.566406 404.914062 316.5 405.15625 316.390625 405.378906 C 316.28125 405.601562 316.128906 405.800781 315.941406 405.964844 L 292.25 426.816406 C 291.90625 427.117188 291.460938 427.285156 291 427.285156 Z M 291 427.285156 " fill-opacity="1" fill-rule="nonzero"/><path fill="#ffaa3e" d="M 250.96875 444.980469 C 248.753906 444.980469 247.441406 444.773438 247.234375 444.738281 C 246.742188 444.65625 246.300781 444.375 246.007812 443.96875 C 245.71875 443.558594 245.601562 443.046875 245.683594 442.554688 C 245.863281 441.523438 246.835938 440.824219 247.867188 441.003906 C 248.058594 441.035156 267.109375 443.882812 289.746094 423.964844 C 290.53125 423.273438 291.730469 423.351562 292.421875 424.136719 C 293.113281 424.921875 293.039062 426.117188 292.25 426.808594 C 273.953125 442.914062 257.96875 444.980469 250.96875 444.980469 Z M 250.96875 444.980469 " fill-opacity="1" fill-rule="nonzero"/><path fill="#ffaa3e" d="M 331.039062 444.980469 C 324.042969 444.980469 308.054688 442.914062 289.753906 426.808594 C 288.96875 426.117188 288.890625 424.921875 289.582031 424.136719 C 290.273438 423.351562 291.46875 423.273438 292.253906 423.964844 C 315.003906 443.980469 333.941406 441.035156 334.132812 441.003906 C 334.375 440.960938 334.628906 440.964844 334.871094 441.023438 C 335.113281 441.078125 335.34375 441.179688 335.546875 441.324219 C 335.75 441.46875 335.921875 441.652344 336.054688 441.859375 C 336.1875 442.070312 336.277344 442.308594 336.316406 442.550781 C 336.402344 443.046875 336.285156 443.558594 335.996094 443.964844 C 335.703125 444.375 335.261719 444.65625 334.765625 444.738281 C 334.566406 444.777344 333.253906 444.980469 331.039062 444.980469 Z M 331.039062 444.980469 " fill-opacity="1" fill-rule="nonzero"/><g clip-path="url(#f06bdfc787)"><path fill="#ffffff" d="M 231.074219 461.355469 L 230.582031 461.355469 L 230.582031 489.894531 C 230.582031 493.699219 233.664062 496.785156 237.46875 496.785156 L 254.347656 496.785156 L 254.347656 490.140625 L 237.714844 490.140625 L 237.714844 461.355469 Z M 259.015625 461.355469 L 258.523438 461.355469 L 258.523438 489.910156 C 258.523438 493.707031 261.597656 496.789062 265.398438 496.796875 L 282.4375 496.835938 L 282.929688 496.835938 L 282.929688 490.191406 L 265.65625 490.191406 L 265.65625 481.480469 L 279.878906 481.480469 L 279.878906 474.835938 L 265.65625 474.835938 L 265.65625 467.996094 L 282.929688 467.996094 L 282.929688 461.355469 Z M 287.871094 461.355469 L 287.378906 461.355469 L 287.378906 489.910156 C 287.378906 493.707031 290.453125 496.789062 294.253906 496.796875 L 311.292969 496.835938 L 311.785156 496.835938 L 311.785156 490.191406 L 294.511719 490.191406 L 294.511719 481.480469 L 308.734375 481.480469 L 308.734375 474.835938 L 294.511719 474.835938 L 294.511719 467.996094 L 311.785156 467.996094 L 311.785156 461.355469 Z M 316.726562 461.355469 L 316.234375 461.355469 L 316.234375 489.894531 C 316.234375 493.699219 319.316406 496.785156 323.121094 496.785156 L 340 496.785156 L 340 490.140625 L 323.367188 490.140625 L 323.367188 461.355469 Z M 316.726562 461.355469 " fill-opacity="1" fill-rule="nonzero"/></g><g clip-path="url(#c91d601579)"><path stroke-linecap="butt" transform="matrix(0.492099, 0, 0, 0.492099, 165.623419, 435.76471)" fill="none" stroke-linejoin="miter" d="M 133.003422 52.003314 L 132.003241 52.003314 L 132.003241 109.997914 C 132.003241 117.729469 138.266277 124.000443 145.997832 124.000443 L 180.297677 124.000443 L 180.297677 110.498004 L 146.497922 110.498004 L 146.497922 52.003314 Z M 189.783517 52.003314 L 188.783336 52.003314 L 188.783336 110.029666 C 188.783336 117.745345 195.030496 124.008381 202.754113 124.024257 L 237.379414 124.103636 L 238.379594 124.103636 L 238.379594 110.601198 L 203.278017 110.601198 L 203.278017 92.899588 L 232.180062 92.899588 L 232.180062 79.39715 L 203.278017 79.39715 L 203.278017 65.497814 L 238.379594 65.497814 L 238.379594 52.003314 Z M 248.42109 52.003314 L 247.42091 52.003314 L 247.42091 110.029666 C 247.42091 117.745345 253.66807 124.008381 261.391687 124.024257 L 296.016987 124.103636 L 297.017168 124.103636 L 297.017168 110.601198 L 261.915591 110.601198 L 261.915591 92.899588 L 290.817636 92.899588 L 290.817636 79.39715 L 261.915591 79.39715 L 261.915591 65.497814 L 297.017168 65.497814 L 297.017168 52.003314 Z M 307.058664 52.003314 L 306.058483 52.003314 L 306.058483 109.997914 C 306.058483 117.729469 312.321519 124.000443 320.053074 124.000443 L 354.352919 124.000443 L 354.352919 110.498004 L 320.553164 110.498004 L 320.553164 52.003314 Z M 307.058664 52.003314 " stroke="#005ca8" stroke-width="2" stroke-opacity="1" stroke-miterlimit="4"/></g><path fill="#ffffff" d="M 344.90625 496.292969 C 344.203125 496.292969 343.851562 495.941406 343.851562 495.238281 L 343.851562 462.714844 C 343.851562 462.011719 344.203125 461.660156 344.90625 461.660156 C 345.609375 461.660156 345.960938 462.011719 345.960938 462.714844 L 345.960938 477.117188 C 347.480469 474.476562 350.445312 473.152344 354.84375 473.152344 L 356.25 473.152344 C 359.3125 473.152344 361.535156 473.855469 362.925781 475.261719 C 364.332031 476.648438 365.035156 478.875 365.035156 481.9375 L 365.035156 495.238281 C 365.035156 495.941406 364.683594 496.292969 363.980469 496.292969 C 363.277344 496.292969 362.925781 495.941406 362.925781 495.238281 L 362.925781 481.9375 C 362.925781 479.476562 362.421875 477.753906 361.417969 476.765625 C 360.433594 475.761719 358.710938 475.261719 356.25 475.261719 L 354.84375 475.261719 C 352.066406 475.261719 349.933594 475.738281 348.445312 476.691406 C 346.957031 477.628906 346.128906 479.09375 345.960938 481.085938 L 345.960938 495.238281 C 345.960938 495.941406 345.609375 496.292969 344.90625 496.292969 Z M 378.875 496.292969 C 375.8125 496.292969 373.582031 495.597656 372.175781 494.210938 C 370.785156 492.804688 370.09375 490.585938 370.09375 487.558594 L 370.09375 481.9375 C 370.09375 478.84375 370.785156 476.601562 372.175781 475.210938 C 373.582031 473.804688 375.8125 473.121094 378.875 473.152344 L 382.992188 473.152344 C 386.054688 473.152344 388.277344 473.855469 389.667969 475.261719 C 391.074219 476.648438 391.777344 478.875 391.777344 481.9375 L 391.777344 487.507812 C 391.777344 490.570312 391.074219 492.804688 389.667969 494.210938 C 388.277344 495.597656 386.054688 496.292969 382.992188 496.292969 Z M 372.199219 487.558594 C 372.199219 489.984375 372.695312 491.699219 373.679688 492.703125 C 374.683594 493.691406 376.417969 494.183594 378.875 494.183594 L 382.992188 494.183594 C 385.453125 494.183594 387.175781 493.691406 388.160156 492.703125 C 389.164062 491.699219 389.667969 489.96875 389.667969 487.507812 L 389.667969 481.9375 C 389.667969 479.476562 389.164062 477.753906 388.160156 476.765625 C 387.175781 475.761719 385.453125 475.261719 382.992188 475.261719 L 378.875 475.261719 C 377.234375 475.246094 375.921875 475.453125 374.9375 475.890625 C 373.964844 476.308594 373.261719 477.011719 372.828125 477.996094 C 372.410156 478.96875 372.199219 480.28125 372.199219 481.9375 Z M 416.960938 473.152344 C 417.664062 473.152344 418.015625 473.503906 418.015625 474.207031 L 418.015625 495.238281 C 418.015625 495.941406 417.664062 496.292969 416.960938 496.292969 C 416.261719 496.292969 415.910156 495.941406 415.910156 495.238281 L 415.910156 492.328125 C 414.386719 494.972656 411.425781 496.292969 407.023438 496.292969 L 405.617188 496.292969 C 402.558594 496.292969 400.324219 495.597656 398.917969 494.210938 C 397.53125 492.804688 396.835938 490.570312 396.835938 487.507812 L 396.835938 474.207031 C 396.835938 473.503906 397.1875 473.152344 397.890625 473.152344 C 398.589844 473.152344 398.941406 473.503906 398.941406 474.207031 L 398.941406 487.507812 C 398.941406 489.96875 399.4375 491.699219 400.425781 492.703125 C 401.425781 493.691406 403.160156 494.183594 405.617188 494.183594 L 407.023438 494.183594 C 409.800781 494.183594 411.933594 493.707031 413.425781 492.753906 C 414.914062 491.800781 415.742188 490.335938 415.910156 488.363281 L 415.910156 474.207031 C 415.910156 473.503906 416.261719 473.152344 416.960938 473.152344 Z M 428.949219 496.242188 C 426.921875 496.242188 425.390625 495.808594 424.355469 494.9375 C 423.316406 494.050781 422.707031 492.695312 422.523438 490.871094 C 422.507812 490.519531 422.589844 490.253906 422.773438 490.070312 C 422.957031 489.867188 423.226562 489.769531 423.578125 489.769531 C 423.910156 489.769531 424.164062 489.859375 424.328125 490.042969 C 424.515625 490.210938 424.613281 490.46875 424.632812 490.820312 C 424.765625 492.042969 425.15625 492.90625 425.8125 493.40625 C 426.480469 493.890625 427.527344 494.132812 428.949219 494.132812 L 437.179688 494.132812 C 438.835938 494.132812 439.972656 493.816406 440.59375 493.179688 C 441.230469 492.527344 441.546875 491.390625 441.546875 489.769531 C 441.546875 488.128906 441.230469 486.988281 440.59375 486.355469 C 439.972656 485.71875 438.835938 485.402344 437.179688 485.402344 L 429.046875 485.402344 C 426.941406 485.402344 425.382812 484.90625 424.378906 483.921875 C 423.375 482.933594 422.875 481.386719 422.875 479.277344 C 422.875 477.136719 423.375 475.570312 424.378906 474.582031 C 425.382812 473.597656 426.941406 473.101562 429.046875 473.101562 L 436.929688 473.101562 C 440.675781 473.101562 442.699219 474.777344 443.003906 478.121094 C 443.050781 478.472656 442.984375 478.75 442.800781 478.949219 C 442.617188 479.136719 442.351562 479.226562 442 479.226562 C 441.648438 479.226562 441.386719 479.144531 441.21875 478.976562 C 441.054688 478.792969 440.945312 478.523438 440.894531 478.171875 C 440.792969 477.070312 440.441406 476.300781 439.839844 475.863281 C 439.238281 475.429688 438.265625 475.210938 436.929688 475.210938 L 429.046875 475.210938 C 427.527344 475.210938 426.464844 475.503906 425.859375 476.089844 C 425.273438 476.675781 424.984375 477.738281 424.984375 479.277344 C 424.984375 480.78125 425.273438 481.828125 425.859375 482.414062 C 426.464844 483 427.527344 483.292969 429.046875 483.292969 L 437.179688 483.292969 C 439.421875 483.292969 441.0625 483.8125 442.097656 484.847656 C 443.136719 485.886719 443.65625 487.527344 443.65625 489.769531 C 443.65625 491.992188 443.136719 493.632812 442.097656 494.6875 C 441.0625 495.722656 439.421875 496.242188 437.179688 496.242188 Z M 449.78125 485.5 L 449.78125 487.558594 C 449.78125 489.984375 450.273438 491.699219 451.261719 492.703125 C 452.265625 493.691406 453.996094 494.183594 456.457031 494.183594 L 460.570312 494.183594 C 462.828125 494.183594 464.460938 493.875 465.464844 493.257812 C 466.46875 492.636719 467.046875 491.574219 467.195312 490.070312 C 467.230469 489.71875 467.332031 489.457031 467.496094 489.289062 C 467.683594 489.105469 467.949219 489.015625 468.300781 489.015625 C 468.636719 489.015625 468.894531 489.113281 469.078125 489.316406 C 469.261719 489.5 469.339844 489.769531 469.304688 490.117188 C 469.136719 492.242188 468.34375 493.808594 466.921875 494.8125 C 465.5 495.800781 463.382812 496.292969 460.570312 496.292969 L 456.457031 496.292969 C 453.394531 496.292969 451.160156 495.597656 449.753906 494.210938 C 448.367188 492.804688 447.671875 490.585938 447.671875 487.558594 L 447.671875 481.9375 C 447.671875 478.84375 448.367188 476.601562 449.753906 475.210938 C 451.160156 473.804688 453.394531 473.121094 456.457031 473.152344 L 460.570312 473.152344 C 463.632812 473.152344 465.859375 473.855469 467.246094 475.261719 C 468.652344 476.648438 469.355469 478.875 469.355469 481.9375 L 469.355469 484.445312 C 469.355469 485.148438 469.003906 485.5 468.300781 485.5 Z M 456.457031 475.261719 C 453.996094 475.226562 452.265625 475.714844 451.261719 476.71875 C 450.273438 477.703125 449.78125 479.445312 449.78125 481.9375 L 449.78125 483.394531 L 467.246094 483.394531 L 467.246094 481.9375 C 467.246094 479.476562 466.746094 477.753906 465.742188 476.765625 C 464.753906 475.761719 463.03125 475.261719 460.570312 475.261719 Z M 456.457031 475.261719 " fill-opacity="1" fill-rule="nonzero"/></svg>